<svg width="21" height="15" viewBox="0 0 21 15" fill="none" xmlns="http://www.w3.org/2000/svg">
<path d="M12.7162 0.650523C12.3164 1.06699 12.3235 1.72888 12.7162 2.13791L16.7073 6.29514H1.15708C0.60019 6.29514 0.150391 6.76367 0.150391 7.34375C0.150391 7.92383 0.60019 8.39236 1.15708 8.39236H16.7073L12.7162 12.5496C12.3235 12.9586 12.3235 13.6279 12.7162 14.037C13.1089 14.446 13.7515 14.446 14.1441 14.037L19.8559 8.08744C20.2486 7.67841 20.2486 7.00909 19.8559 6.60006L14.1441 0.650523C13.7515 0.241492 13.1089 0.241492 12.7162 0.650523Z" fill="url(#paint0_linear_3646_19395)"/>
<defs>
<linearGradient id="paint0_linear_3646_19395" x1="-0.0605384" y1="0.195711" x2="13.0944" y2="18.9875" gradientUnits="userSpaceOnUse">
<stop stop-color="#FC907E"/>
<stop offset="0.99" stop-color="#9F6EED"/>
</linearGradient>
</defs>
</svg>
