<svg xmlns="http://www.w3.org/2000/svg" xmlns:xlink="http://www.w3.org/1999/xlink" viewBox="0 0 256 256" width="256" height="256" preserveAspectRatio="xMidYMid meet" style="width: 100%; height: 100%; transform: translate3d(0px, 0px, 0px); content-visibility: visible;"><defs><clipPath id="__lottie_element_2"><rect width="256" height="256" x="0" y="0"/></clipPath></defs><g clip-path="url(#__lottie_element_2)"><g transform="matrix(1,0,0,1,115.61200714111328,209.5500030517578)" opacity="1" style="display: block;"><g opacity="1" transform="matrix(1,0,0,1,58.95000076293945,10.949999809265137)"><path fill="rgb(0,0,0)" fill-opacity="1" d=" M48,10.699999809265137 C48,10.699999809265137 -48,10.699999809265137 -48,10.699999809265137 C-53.909000396728516,10.699999809265137 -58.70000076293945,5.908999919891357 -58.70000076293945,0 C-58.70000076293945,-5.909999847412109 -53.909000396728516,-10.699999809265137 -48,-10.699999809265137 C-48,-10.699999809265137 48,-10.699999809265137 48,-10.699999809265137 C53.909000396728516,-10.699999809265137 58.70000076293945,-5.909999847412109 58.70000076293945,0 C58.70000076293945,5.908999919891357 53.909000396728516,10.699999809265137 48,10.699999809265137z"/></g></g><g transform="matrix(1,0,0,1,21.050003051757812,117.05000305175781)" opacity="1" style="display: block;"><g opacity="1" transform="matrix(1,0,0,1,106.94999694824219,10.949999809265137)"><path fill="rgb(0,0,0)" fill-opacity="1" d=" M96,10.699999809265137 C96,10.699999809265137 -96,10.699999809265137 -96,10.699999809265137 C-101.90899658203125,10.699999809265137 -106.69999694824219,5.908999919891357 -106.69999694824219,0 C-106.69999694824219,-5.909999847412109 -101.90899658203125,-10.699999809265137 -96,-10.699999809265137 C-96,-10.699999809265137 96,-10.699999809265137 96,-10.699999809265137 C101.90899658203125,-10.699999809265137 106.69999694824219,-5.909999847412109 106.69999694824219,0 C106.69999694824219,5.908999919891357 101.90899658203125,10.699999809265137 96,10.699999809265137z"/></g></g><g transform="matrix(1,0,0,1,21.050003051757812,21.050003051757812)" opacity="1" style="display: block;"><g opacity="1" transform="matrix(1,0,0,1,58.95000076293945,10.949999809265137)"><path fill="rgb(0,0,0)" fill-opacity="1" d=" M48,10.699999809265137 C48,10.699999809265137 -48,10.699999809265137 -48,10.699999809265137 C-53.909000396728516,10.699999809265137 -58.70000076293945,5.908999919891357 -58.70000076293945,0 C-58.70000076293945,-5.909999847412109 -53.909000396728516,-10.699999809265137 -48,-10.699999809265137 C-48,-10.699999809265137 48,-10.699999809265137 48,-10.699999809265137 C53.909000396728516,-10.699999809265137 58.70000076293945,-5.909999847412109 58.70000076293945,0 C58.70000076293945,5.908999919891357 53.909000396728516,10.699999809265137 48,10.699999809265137z"/></g></g></g></svg>