<svg width="80" height="80" viewBox="0 0 80 80" fill="none" xmlns="http://www.w3.org/2000/svg">
<path d="M41.2297 61.2339C52.4993 61.1738 61.586 51.9149 61.5255 40.5536C61.4649 29.1923 52.28 20.0309 41.0104 20.0909C29.7408 20.151 20.6541 29.4099 20.7146 40.7712C20.7752 52.1325 29.9601 61.294 41.2297 61.2339Z" fill="url(#paint0_linear_6_338)"/>
<path d="M41.2134 58.4436C50.9545 58.3925 58.8094 50.39 58.7579 40.5696C58.7063 30.7493 50.7677 22.8298 41.0266 22.881C31.2855 22.9321 23.4306 30.9346 23.4822 40.755C23.5338 50.5753 31.4723 58.4948 41.2134 58.4436Z" fill="#EADFEF"/>
<path d="M39.3908 54.0986L39.3651 50.79C37.9479 50.7382 36.5439 50.4992 35.1894 50.079C34.702 49.9238 34.2919 49.589 34.0424 49.1424C33.7929 48.6959 33.7227 48.1712 33.846 47.6748L33.8768 47.5505C33.943 47.2816 34.064 47.0293 34.2322 46.8094C34.4005 46.5895 34.6124 46.4067 34.8546 46.2726C35.0969 46.1384 35.3642 46.0557 35.6399 46.0298C35.9156 46.0038 36.1936 46.0351 36.4567 46.1217C37.6749 46.5348 38.9529 46.7448 40.2393 46.7431C42.2244 46.7277 43.5768 45.9508 43.566 44.5579C43.5557 43.2345 42.4346 42.4073 39.8506 41.5566C36.1146 40.332 33.5587 38.6104 33.5324 35.2322C33.5086 32.1675 35.6492 29.7477 39.3698 28.9874L39.344 25.6789L42.7571 25.6523L42.781 28.717C43.854 28.7463 44.9206 28.8918 45.9623 29.1509C46.4744 29.285 46.9131 29.6156 47.1829 30.0711C47.4527 30.5267 47.5319 31.0702 47.4034 31.5838C47.3385 31.846 47.2214 32.0925 47.0592 32.3085C46.897 32.5245 46.6929 32.7057 46.4592 32.8411C46.2255 32.9766 45.9669 33.0636 45.6988 33.097C45.4307 33.1303 45.1587 33.1094 44.8989 33.0353C43.9032 32.7511 42.8715 32.6129 41.836 32.6252C39.5723 32.6428 38.8487 33.6236 38.8563 34.5987C38.8652 35.748 40.0897 36.4698 43.0587 37.5613C47.2144 38.9918 48.9009 40.8943 48.9252 44.0285C48.9493 47.1282 46.7759 49.7921 42.7763 50.5196L42.8039 54.072L39.3908 54.0986Z" fill="#5E428D"/>
<path d="M41.6004 22.8871C39.0011 22.8152 36.4184 23.3222 34.0392 24.3714C31.6601 25.4206 29.544 26.9858 27.8442 28.9536C31.1767 25.9788 35.5211 24.3918 39.9864 24.5184C43.3448 24.6428 46.5995 25.7146 49.3748 27.6099C52.15 29.5053 54.3326 32.1469 55.6706 35.2298C57.0085 38.3127 57.4473 41.7111 56.9361 45.0328C56.425 48.3544 54.9848 51.4637 52.7819 54.0017C55.4391 51.6384 57.3283 48.5339 58.2061 45.0878C59.084 41.6417 58.9104 38.0117 57.7078 34.6651C56.5051 31.3185 54.3284 28.4084 51.4578 26.3093C48.5872 24.2103 45.1541 23.0184 41.6004 22.8871Z" fill="#F3EFF7"/>
<path d="M6.66663 24.8223V10.4028H21.8926" stroke="url(#paint1_linear_6_338)" stroke-width="4" stroke-miterlimit="10" stroke-linecap="round"/>
<path d="M73.3333 56.311V70.7305H58.1063" stroke="url(#paint2_linear_6_338)" stroke-width="4" stroke-miterlimit="10" stroke-linecap="round"/>
<path d="M21.4892 71.1337H7.0697V55.9077" stroke="url(#paint3_linear_6_338)" stroke-width="4" stroke-miterlimit="10" stroke-linecap="round"/>
<path d="M58.5095 10H72.929V25.2259" stroke="url(#paint4_linear_6_338)" stroke-width="4" stroke-miterlimit="10" stroke-linecap="round"/>
<defs>
<linearGradient id="paint0_linear_6_338" x1="20.7142" y1="40.6624" x2="61.5259" y2="40.6624" gradientUnits="userSpaceOnUse">
<stop stop-color="#F18D7F"/>
<stop offset="0.99" stop-color="#826DAE"/>
</linearGradient>
<linearGradient id="paint1_linear_6_338" x1="4.66578" y1="17.613" x2="23.894" y2="17.613" gradientUnits="userSpaceOnUse">
<stop stop-color="#F18D7F"/>
<stop offset="0.99" stop-color="#826DAE"/>
</linearGradient>
<linearGradient id="paint2_linear_6_338" x1="56.1057" y1="63.5209" x2="75.3339" y2="63.5209" gradientUnits="userSpaceOnUse">
<stop stop-color="#F18D7F"/>
<stop offset="0.99" stop-color="#826DAE"/>
</linearGradient>
<linearGradient id="paint3_linear_6_338" x1="5.06894" y1="63.5208" x2="23.4905" y2="63.5208" gradientUnits="userSpaceOnUse">
<stop stop-color="#F18D7F"/>
<stop offset="0.99" stop-color="#826DAE"/>
</linearGradient>
<linearGradient id="paint4_linear_6_338" x1="56.509" y1="17.6133" x2="74.9306" y2="17.6133" gradientUnits="userSpaceOnUse">
<stop stop-color="#F18D7F"/>
<stop offset="0.99" stop-color="#826DAE"/>
</linearGradient>
</defs>
</svg>
