<svg width="17" height="17" viewBox="0 0 17 17" fill="none" xmlns="http://www.w3.org/2000/svg">
<path d="M12.3046 15.8761C12.1252 15.8392 12.0113 15.7104 11.9047 15.5786C11.681 15.299 11.4658 15.013 11.2453 14.7303C11.0564 14.4886 10.8655 14.2481 10.6787 14.0054C10.5743 13.8693 10.4751 13.729 10.3696 13.5939C10.3052 13.5116 10.2324 13.4346 10.1628 13.3555C10.1564 13.3481 10.148 13.3417 10.1427 13.3344C10.0077 13.1476 9.87683 12.9587 9.73651 12.7752C9.57824 12.5684 9.41154 12.3689 9.25222 12.1632C9.12033 11.9923 8.99372 11.8171 8.86289 11.6452C8.78692 11.546 8.70884 11.4478 8.63182 11.3497C8.50732 11.1925 8.38071 11.0353 8.25726 10.877C8.1623 10.7557 8.07262 10.6312 7.97872 10.5088C7.78141 10.2524 7.58305 9.99604 7.3847 9.73965C7.21483 9.51913 7.04496 9.29651 6.87508 9.07599C6.7337 8.89346 6.59126 8.71304 6.44883 8.53156C6.34859 8.40495 6.24625 8.28045 6.14812 8.15173C6.02995 7.99557 5.91389 7.83836 5.80205 7.67799C5.74824 7.60202 5.73558 7.59358 5.64695 7.63579C5.51401 7.69909 5.38529 7.774 5.24602 7.82148C4.88306 7.94598 4.51589 7.93543 4.15188 7.81726C4.09068 7.79722 4.02738 7.78561 3.96935 7.76029C3.92187 7.74024 3.88072 7.70331 3.8343 7.67905C3.56736 7.5461 3.33735 7.36252 3.12844 7.15361C2.95118 6.97635 2.78342 6.7896 2.6241 6.59652C2.47428 6.41504 2.3445 6.21774 2.1989 6.03204C2.01742 5.79992 1.82645 5.57624 1.64497 5.34412C1.52997 5.19535 1.42657 5.03708 1.31578 4.88515C1.27358 4.82712 1.22504 4.77436 1.18178 4.71739C1.01508 4.50004 0.849428 4.28058 0.680613 4.06428C0.59937 3.95983 0.506522 3.86382 0.42739 3.75725C0.298668 3.58211 0.163616 3.41012 0.0549407 3.22232C-0.0685056 3.01024 0.0275082 2.67578 0.229032 2.51435C0.382021 2.39196 0.548726 2.34764 0.739698 2.40145C0.849428 2.43311 0.928561 2.50591 0.997142 2.59137C1.41179 3.10204 1.82645 3.6127 2.24005 4.12337C2.50487 4.45045 2.76865 4.77858 3.03348 5.10566C3.19491 5.30402 3.39538 5.34095 3.60006 5.21223C3.78471 5.09617 3.82691 4.80285 3.68764 4.63404C3.53043 4.44412 3.37638 4.24998 3.22129 4.05795C3.07146 3.87331 2.92164 3.68867 2.77181 3.50403C2.65575 3.36159 2.54075 3.21915 2.42469 3.07566C2.28436 2.90262 2.14298 2.72959 2.0037 2.5555C1.8486 2.36241 1.69034 2.17144 1.54579 1.97097C1.50359 1.91189 1.44556 1.85808 1.43923 1.76628C1.42762 1.59536 1.49726 1.46769 1.61226 1.36218C1.79374 1.19653 1.99843 1.13323 2.21156 1.25984C2.27592 1.29782 2.33289 1.35269 2.38037 1.41072C2.63465 1.72092 2.88576 2.03428 3.13793 2.34659C3.44075 2.7222 3.7425 3.09887 4.04637 3.47343C4.17298 3.63064 4.29959 3.78785 4.43359 3.93873C4.5486 4.0685 4.69315 4.13076 4.8704 4.08644C5.04555 4.04213 5.23863 3.83638 5.26184 3.66018C5.27872 3.53357 5.21858 3.42068 5.15211 3.32466C5.05082 3.178 4.92843 3.04506 4.81448 2.90684C4.63195 2.68527 4.44731 2.46476 4.26689 2.24319C4.16982 2.12396 4.07802 1.99946 3.98201 1.87918C3.78365 1.63229 3.58424 1.38645 3.38483 1.14167C3.31308 1.05304 3.235 0.969687 3.16642 0.880004C3.13371 0.836745 3.11472 0.782935 3.08834 0.731235C3.08623 0.73229 3.07674 0.740731 3.06408 0.751282C3.01449 0.584577 3.05563 0.436863 3.14532 0.298645C3.28881 0.0770752 3.56208 -0.0505915 3.78365 0.0190449C3.86278 0.0443672 3.93875 0.106618 3.99362 0.170979C4.29221 0.521271 4.58236 0.878949 4.87673 1.23346C5.29349 1.73569 5.71237 2.2358 6.12913 2.73803C6.39291 3.05667 6.66301 3.37003 6.91412 3.69922C7.17579 4.04213 7.36359 4.42302 7.46277 4.85139C7.52397 5.11411 7.49021 5.361 7.45117 5.61844C7.40052 5.95185 7.26125 6.23251 7.03124 6.47201C6.97426 6.5311 7.00908 6.56908 7.04496 6.61023C7.23909 6.83286 7.4364 7.05337 7.62948 7.276C7.95339 7.6495 8.2752 8.02617 8.59911 8.40073C8.99055 8.85337 9.38199 9.30495 9.77449 9.75653C10.206 10.2524 10.6386 10.7483 11.0701 11.2442C11.45 11.681 11.8267 12.1189 12.2065 12.5557C12.5251 12.9218 12.8469 13.2837 13.1645 13.6519C13.3281 13.8419 13.4895 14.0349 13.6414 14.2344C13.7395 14.3641 13.7796 14.5192 13.7944 14.6838C13.8535 15.3211 13.4336 15.7537 12.9725 15.9215C12.7646 15.9974 12.5452 15.9742 12.331 15.9341C12.3173 15.931 12.3067 15.9077 12.2941 15.894C12.2972 15.8877 12.3004 15.8814 12.3025 15.8761H12.3046Z" fill="url(#paint0_linear_593_54738)"/>
<path d="M10.4475 9.20906C10.3093 9.05396 10.1774 8.90835 10.0487 8.76064C9.95269 8.65091 9.863 8.53591 9.76593 8.42723C9.62877 8.27319 9.48844 8.12125 9.34917 7.96932C9.28798 7.90285 9.21834 7.84271 9.16242 7.77202C9.14448 7.74986 9.14026 7.68972 9.15714 7.66967C9.27215 7.52934 9.3956 7.39535 9.51271 7.25713C9.71213 7.01973 9.90943 6.78022 10.1046 6.53861C10.1278 6.51012 10.1415 6.45842 10.1331 6.4236C10.0962 6.27061 10.0624 6.11551 10.0023 5.97097C9.96324 5.87812 9.95585 5.78738 9.9548 5.69348C9.95163 5.41493 9.95269 5.13638 9.95269 4.85784C9.95269 4.82091 9.96218 4.78504 9.96851 4.73545C9.97484 4.76394 9.97906 4.77871 9.97906 4.77871C10.0234 4.58351 10.0603 4.3725 10.1215 4.16992C10.2397 3.77742 10.4127 3.40708 10.6258 3.05679C10.897 2.61048 11.2209 2.20427 11.5923 1.83921C12.1051 1.33593 12.6822 0.925495 13.3459 0.645895C13.5885 0.543551 13.8428 0.4813 14.1003 0.421159C14.3915 0.352578 14.6795 0.348358 14.9686 0.390562C15.436 0.459143 15.8412 0.661721 16.1809 0.996187C16.5323 1.3412 16.7739 1.74742 16.9005 2.22326C17.0028 2.61259 17.0218 3.00826 16.9733 3.40497C16.9227 3.8154 16.814 4.21107 16.6599 4.59512C16.4341 5.15749 16.1282 5.67237 15.7473 6.14295C15.3527 6.63146 14.8979 7.05455 14.363 7.38585C13.9642 7.63274 13.539 7.81739 13.0726 7.88808C12.6358 7.95455 12.2095 7.89546 11.7917 7.76252C11.7875 7.76147 11.7822 7.75936 11.778 7.75724C11.6672 7.70554 11.6641 7.70343 11.586 7.80261C11.3792 8.06322 11.1766 8.32594 10.9698 8.58761C10.8274 8.76697 10.6839 8.94528 10.5393 9.12359C10.5119 9.15736 10.476 9.18479 10.4486 9.21117L10.4475 9.20906Z" fill="url(#paint1_linear_593_54738)"/>
<path d="M6.22821 11.0011C6.38226 11.1973 6.5247 11.3788 6.66713 11.5603C6.92247 11.8852 7.1778 12.2113 7.43419 12.5352C7.49644 12.6132 7.50172 12.6744 7.44052 12.7536C7.12821 13.1535 6.81379 13.5512 6.50148 13.9511C6.00137 14.5894 5.50547 15.2288 5.00219 15.864C4.79856 16.1214 4.54639 16.3103 4.20876 16.3609C4.0104 16.3905 3.81521 16.3631 3.63795 16.2871C3.45648 16.209 3.2961 16.0877 3.17793 15.9189C3.03022 15.7078 2.98168 15.4768 3.00595 15.2225C3.03338 14.9387 3.16843 14.7023 3.33936 14.4871C3.65061 14.0957 3.97031 13.7116 4.28895 13.3265C4.66034 12.876 5.03384 12.4275 5.40418 11.976C5.6247 11.708 5.83994 11.4358 6.06045 11.1678C6.11004 11.1076 6.17229 11.058 6.23138 11L6.22821 11.0011Z" fill="url(#paint2_linear_593_54738)"/>
<defs>
<linearGradient id="paint0_linear_593_54738" x1="0.00113081" y1="7.98819" x2="13.8018" y2="7.98819" gradientUnits="userSpaceOnUse">
<stop stop-color="#E4889E"/>
<stop offset="0.58" stop-color="#AC63C4"/>
<stop offset="1" stop-color="#8347E2"/>
</linearGradient>
<linearGradient id="paint1_linear_593_54738" x1="9.14659" y1="4.78504" x2="16.9965" y2="4.78504" gradientUnits="userSpaceOnUse">
<stop stop-color="#E4889E"/>
<stop offset="0.58" stop-color="#AC63C4"/>
<stop offset="1" stop-color="#8347E2"/>
</linearGradient>
<linearGradient id="paint2_linear_593_54738" x1="2.99751" y1="13.6873" x2="7.48272" y2="13.6873" gradientUnits="userSpaceOnUse">
<stop stop-color="#E4889E"/>
<stop offset="0.58" stop-color="#AC63C4"/>
<stop offset="1" stop-color="#8347E2"/>
</linearGradient>
</defs>
</svg>
