<svg width="19" height="15" viewBox="0 0 19 15" fill="none" xmlns="http://www.w3.org/2000/svg">
<path d="M4.26147 7.44035C3.99981 7.6366 3.76844 7.80266 3.54555 7.97917C3.32872 8.14987 3.15308 8.122 2.98106 7.91298C2.02894 6.75174 1.07317 5.59282 0.116203 4.43507C-0.0558093 4.22721 -0.0388468 4.05883 0.180409 3.89277C1.54803 2.85811 2.9108 1.81648 4.28085 0.784145C4.9689 0.265072 5.76355 0.0246964 6.63572 0.00147172C6.88284 -0.0054957 7.07544 0.0711459 7.1881 0.28133C7.91128 1.63649 10.4273 2.0348 11.6532 0.357971C11.853 0.0839195 12.0723 -0.0182693 12.409 0.00263296C13.2788 0.0548886 14.0625 0.313844 14.7494 0.832917C16.0855 1.84319 17.4253 2.85115 18.7614 3.86142C19.0606 4.08786 19.0715 4.19237 18.8329 4.48268C17.9025 5.6114 16.9722 6.74013 16.0419 7.86885C15.7924 8.17077 15.716 8.1789 15.4047 7.94665C15.1927 7.78756 14.9808 7.62847 14.713 7.42642C14.6731 8.11387 14.6343 8.74326 14.5992 9.37265C14.5023 11.118 14.4017 12.8622 14.3133 14.6075C14.2988 14.8955 14.1679 15 13.8845 15C10.9615 14.9977 8.03969 15 5.11668 14.9977C4.77024 14.9977 4.69149 14.9176 4.67454 14.5936C4.55098 12.3083 4.42742 10.0241 4.30144 7.73879C4.29659 7.65518 4.27963 7.57157 4.26267 7.44267L4.26147 7.44035Z" fill="url(#paint0_linear_593_54744)"/>
<defs>
<linearGradient id="paint0_linear_593_54744" x1="3.84718" y1="2.21479" x2="17.1103" y2="15.2775" gradientUnits="userSpaceOnUse">
<stop stop-color="#E4889E"/>
<stop offset="0.58" stop-color="#AC63C4"/>
<stop offset="1" stop-color="#8347E2"/>
</linearGradient>
</defs>
</svg>
