<svg width="20" height="20" viewBox="0 0 24 24" fill="currentColor" xmlns="http://www.w3.org/2000/svg">
<path d="M2 4.22008C2 3.57656 2.22523 3.04568 2.67568 2.62741C3.12612 2.20913 3.71172 2 4.43243 2C5.14029 2 5.71299 2.20591 6.15058 2.61776C6.60102 3.04247 6.82625 3.59587 6.82625 4.27799C6.82625 4.89575 6.60747 5.41054 6.16988 5.82239C5.71944 6.2471 5.12741 6.45946 4.39382 6.45946H4.37452C3.66666 6.45946 3.09396 6.2471 2.65637 5.82239C2.21878 5.39768 2 4.86357 2 4.22008ZM2.25097 21.112V8.21622H6.53668V21.112H2.25097ZM8.9112 21.112H13.1969V13.9112C13.1969 13.4607 13.2484 13.1132 13.3514 12.8687C13.5315 12.4311 13.805 12.0611 14.1718 11.7587C14.5386 11.4562 14.9987 11.305 15.5521 11.305C16.9936 11.305 17.7143 12.2767 17.7143 14.2201V21.112H22V13.7181C22 11.8134 21.5496 10.3687 20.6486 9.38417C19.7477 8.39961 18.5573 7.90734 17.0772 7.90734C15.417 7.90734 14.1236 8.62162 13.1969 10.0502V10.0888H13.1776L13.1969 10.0502V8.21622H8.9112C8.93693 8.62805 8.94981 9.90861 8.94981 12.0579C8.94981 14.2072 8.93693 17.2252 8.9112 21.112Z"/>
</svg>