<?xml version="1.0" encoding="UTF-8"?><svg id="Layer_1" xmlns="http://www.w3.org/2000/svg" xmlns:xlink="http://www.w3.org/1999/xlink" viewBox="0 0 1000 600"><defs><style>.cls-1{fill:url(#linear-gradient);}.cls-2{fill:url(#linear-gradient-3);}.cls-3{fill:url(#linear-gradient-4);}.cls-4{fill:url(#linear-gradient-2);}</style><linearGradient id="linear-gradient" x1="15.54" y1="278.82" x2="715.2" y2="278.82" gradientUnits="userSpaceOnUse"><stop offset="0" stop-color="#f78e86"/><stop offset=".99" stop-color="#a871e3"/></linearGradient><linearGradient id="linear-gradient-2" x1="279.9" y1="294.27" x2="980.89" y2="294.27" xlink:href="#linear-gradient"/><linearGradient id="linear-gradient-3" x1="764.31" y1="184.58" x2="993.14" y2="184.58" xlink:href="#linear-gradient"/><linearGradient id="linear-gradient-4" x1="4.05" y1="387.93" x2="232.24" y2="387.93" xlink:href="#linear-gradient"/></defs><path class="cls-1" d="m675.9,317.84c13.39,19.47,26.18,37.8,38.54,56.43,1.23,1.85.94,6.61-.55,8.07-56.72,55.46-119.06,100.96-201.58,107.8-55.86,4.63-104.84-15.26-149.87-46.21-59-40.56-103.82-94.23-142.71-153.82-35.66-54.66-77.99-103.45-136.34-135.47-12.04-6.61-25.29-11.25-38.36-15.7-22.71-7.73-33.96-25.93-27.81-46.58,6.09-20.43,26.02-30.03,48.9-23.49,45.07,12.86,83.2,37.73,118.09,68.23,46.26,40.45,81.72,89.59,115.45,140.49,28.87,43.58,64.86,80.85,108.62,110.29,59.83,40.25,119.71,38.87,180.14,1.78,29.58-18.15,56.35-39.73,80.19-64.96,2.15-2.28,4.58-4.3,7.31-6.85Z"/><path class="cls-4" d="m321.23,255.24c-14.02-20.42-27.48-40.02-41.33-60.2,1.07-1.45,2.07-3.28,3.5-4.69,35.72-35.2,74.99-65.47,120.92-86.35,78.08-35.5,152.37-26.22,223.06,19.9,61.97,40.43,108.42,95.62,148.28,157.12,33.97,52.41,73.85,99.59,128.12,132.14,15.95,9.57,34.2,15.4,51.64,22.33,13.67,5.43,23.05,14.32,25.07,29.13,1.99,14.56-3.29,26.63-15.34,35.27-10.01,7.19-21.05,7.53-32.61,4.3-44.4-12.43-82.53-36.05-116.99-65.98-43.61-37.88-78.5-82.95-109.81-131.35-31.15-48.16-69.5-89.95-117.68-122.1-58.65-39.13-117.75-38.9-177.5-3.03-29.76,17.87-56.58,39.42-80.19,64.92-2.62,2.83-5.63,5.3-9.14,8.58Z"/><path class="cls-2" d="m806.66,270.8c-13.63-19.8-27.28-39.63-42.36-61.53,20.03-17.21,39.74-35.64,61.01-52.06,35.81-27.65,75.34-48.31,120.11-57.66,23.56-4.92,42.18,5.86,46.79,27.08,4.49,20.7-7.54,38.71-30.44,43.65-42.66,9.19-78.23,31.42-110.69,59.28-15.3,13.13-29.61,27.43-44.41,41.23Z"/><path class="cls-3" d="m232.24,362c-52.03,51.7-108.04,95.56-181.24,111.47-25.78,5.6-48.14-12.08-46.91-36.51.76-15.01,10.1-29.34,24.95-32.46,65.24-13.69,113.28-53.84,157.55-100.18.94-.98,2.1-1.75,3.59-2.98,13.95,20.13,27.62,39.85,42.05,60.66Z"/></svg>