<svg width="18" height="17" viewBox="0 0 18 17" fill="none" xmlns="http://www.w3.org/2000/svg">
<path d="M12.3459 6.00331V6.16065C12.3459 6.16065 12.3522 6.16065 12.3554 6.16065C12.3585 6.13002 12.3607 6.09835 12.3659 6.06878C12.4177 5.76467 12.4546 5.45528 12.5275 5.15645C12.6077 4.83016 12.7186 4.51021 12.8232 4.19132C12.9119 3.92205 13.0058 3.65279 13.1093 3.3888C13.254 3.02134 13.4092 2.65809 13.5634 2.29485C13.6447 2.10267 13.7313 1.9126 13.8189 1.72358C13.8442 1.66973 13.8812 1.6201 13.9203 1.5578C13.8094 1.54724 13.6996 1.53563 13.6035 1.52612C13.5929 1.43637 13.5855 1.35717 13.5708 1.28009C13.5687 1.26847 13.5243 1.26636 13.4842 1.2558C13.499 1.28431 13.5042 1.29593 13.5074 1.30226C13.4525 1.2727 13.3923 1.2463 13.3395 1.2104C13.3226 1.19878 13.3194 1.15866 13.3194 1.13226C13.3184 0.81442 13.3163 0.495526 13.3194 0.177688C13.3205 0.0763179 13.3775 0.0235209 13.4789 0.00768179C13.5169 0.00240209 13.556 0.000290239 13.595 0.000290239C14.5707 0.000290239 15.5475 0.000290239 16.5232 0.000290239C16.6161 0.000290239 16.7154 -0.00921326 16.7808 0.0805417C16.8009 0.10694 16.8241 0.14073 16.8252 0.170297C16.8294 0.49975 16.8304 0.829203 16.8283 1.15866C16.8283 1.2463 16.7322 1.22307 16.6868 1.26108C16.6488 1.29382 16.5601 1.24736 16.5443 1.32761C16.5327 1.38357 16.5422 1.44376 16.5422 1.50184C16.5422 1.50501 16.5422 1.50712 16.539 1.52507C16.4408 1.53457 16.3384 1.54513 16.2402 1.55569C16.6214 2.36032 16.9688 3.17339 17.257 4.01075C17.4112 4.45847 17.5601 4.9083 17.6551 5.37291C17.709 5.63796 17.7618 5.90405 17.7924 6.17121C17.822 6.4278 17.8336 6.68756 17.8336 6.94627C17.8368 9.42139 17.8357 11.8955 17.8368 14.3706C17.8368 14.6314 17.7882 14.8827 17.6657 15.1129C17.5422 15.3473 17.3373 15.4656 17.0744 15.4666C16.1758 15.4698 15.2782 15.4688 14.3796 15.4688C13.9657 15.4688 13.5507 15.4688 13.1368 15.4698C12.9361 15.4698 12.7545 15.4286 12.5961 15.2924C12.4926 15.2037 12.4589 15.0802 12.3966 14.9693C12.3047 14.8046 12.3047 14.6251 12.3047 14.4456C12.3047 11.887 12.3047 9.32847 12.3047 6.76992C12.3047 6.51333 12.3142 6.25779 12.3195 6.0012C12.3279 6.0012 12.3353 6.00225 12.3438 6.00331H12.3459Z" fill="url(#paint0_linear_593_54735)"/>
<path d="M8.53959 16.1707C8.55014 16.1548 8.55542 16.1474 8.56282 16.1369C8.2661 16.0925 7.97043 16.0482 7.65576 16.0007C7.69695 15.9922 7.72123 15.9869 7.74658 15.9817C7.50477 15.9341 7.26507 15.8866 7.02431 15.8391C7.03065 15.8328 7.03698 15.8254 7.04649 15.8169C6.93139 15.7905 6.81841 15.7673 6.70753 15.7377C6.61672 15.7135 6.52802 15.6786 6.43721 15.6512C6.36963 15.6311 6.30099 15.6163 6.23341 15.5952C6.07608 15.5456 5.91874 15.4959 5.76246 15.4431C5.56711 15.3766 5.36965 15.3154 5.17959 15.2362C4.86175 15.1052 4.54813 14.9637 4.23346 14.8244C4.06345 14.7483 3.89239 14.6734 3.72872 14.5857C3.50275 14.4653 3.28206 14.3355 3.06031 14.2087C2.92515 14.1306 2.78577 14.0577 2.65694 13.969C2.39401 13.7885 2.13848 13.5963 1.87766 13.4126C1.62529 13.2352 1.40565 13.0208 1.19024 12.8033C0.998062 12.6079 0.816438 12.402 0.63376 12.1972C0.593634 12.1528 0.568291 12.0947 0.537669 12.042C0.472201 11.9311 0.415181 11.8139 0.340209 11.7093C0.259957 11.5974 0.239894 11.4612 0.174425 11.3461C0.0804467 11.1814 0.077279 10.9976 0.0392652 10.8213C0.00125132 10.6428 -0.0166989 10.4612 0.020259 10.2859C0.0688323 10.0526 0.0931203 9.81075 0.196602 9.59111C0.270518 9.43589 0.338099 9.27644 0.424686 9.12756C0.614755 8.79916 0.869237 8.52461 1.16701 8.28914C1.62951 7.92273 2.14798 7.66613 2.70974 7.49296C2.91142 7.43066 3.11944 7.39159 3.32007 7.33035C3.55555 7.25854 3.79841 7.25115 4.03811 7.21525C4.55658 7.13816 5.07716 7.16456 5.59774 7.17512C5.68538 7.17723 5.77197 7.19518 5.87334 7.2068C5.85538 7.22158 5.85011 7.22897 5.84272 7.23003C5.59774 7.28283 5.39183 7.4201 5.17853 7.53837C4.85435 7.71893 4.54813 7.93012 4.26725 8.17404C3.86494 8.52356 3.50275 8.90898 3.23348 9.37359C3.09621 9.61118 2.98534 9.85932 2.91565 10.1244C2.89031 10.2215 2.86602 10.3239 2.91565 10.4295C2.92726 10.419 2.94099 10.4105 2.94733 10.3989C3.27361 9.83715 3.71288 9.37253 4.20601 8.95649C4.65901 8.57319 5.15002 8.24373 5.67165 7.96074C6.10775 7.72421 6.55759 7.51619 7.03382 7.37258C7.06655 7.36308 7.10668 7.3578 7.13941 7.36625C7.47942 7.44755 7.81944 7.52992 8.15839 7.61862C8.30094 7.65557 8.43822 7.71048 8.57971 7.75378C8.63779 7.77173 8.69903 7.77806 8.75711 7.78968C8.74655 7.86465 8.70009 7.89211 8.63779 7.91217C7.77086 8.1941 7.00003 8.64288 6.31683 9.24371C5.90185 9.60801 5.54283 10.0188 5.26195 10.4961C5.10461 10.7643 4.98001 11.0473 4.90821 11.3493C4.88075 11.4622 4.87864 11.5816 4.86491 11.6977C4.87019 11.6998 4.87547 11.7019 4.88181 11.7051C4.92827 11.6386 4.9779 11.5731 5.02119 11.5045C5.29151 11.0684 5.63153 10.6914 6.00111 10.3366C6.56181 9.79913 7.1922 9.35881 7.86589 8.97761C8.31045 8.7263 8.774 8.51828 9.25235 8.33982C9.38223 8.29125 9.51316 8.24796 9.64621 8.211C9.68845 8.19938 9.74336 8.20044 9.78243 8.21839C10.3041 8.45281 10.8077 8.71996 11.2924 9.02196C11.3579 9.06209 11.4223 9.10433 11.4962 9.15079C11.4688 9.16135 11.4498 9.16663 11.4339 9.17613C11.2966 9.26377 11.1361 9.28489 10.9883 9.34191C10.3537 9.59006 9.77292 9.92796 9.24918 10.3651C8.89861 10.6576 8.59027 10.986 8.33156 11.3609C8.12143 11.666 7.95354 11.9944 7.87118 12.3577C7.85217 12.4422 7.86801 12.5351 7.86801 12.6449C7.8923 12.6174 7.90708 12.6048 7.91658 12.5889C8.12988 12.2172 8.40654 11.8952 8.70748 11.5911C9.28086 11.0124 9.93554 10.5446 10.6515 10.1592C11.0506 9.9438 11.4614 9.7569 11.8922 9.61434C11.9049 9.61012 11.9154 9.59956 11.9281 9.59639C11.9999 9.57739 12.0654 9.55627 12.1393 9.61118C12.606 9.95647 13.0252 10.3524 13.4191 10.7769C13.833 11.2225 14.1825 11.7146 14.4571 12.2574C14.6725 12.684 14.8172 13.1338 14.8847 13.61C14.9259 13.8962 14.9185 14.176 14.8414 14.4548C14.7549 14.7663 14.5806 15.0229 14.3515 15.2446C14.0685 15.5181 13.7359 15.7124 13.3716 15.8518C13.1298 15.9447 12.8827 16.0281 12.6314 16.0873C12.3315 16.158 12.0274 16.2224 11.7211 16.2457C11.2565 16.2816 10.7887 16.2847 10.3231 16.2921C10.0633 16.2963 9.80355 16.2868 9.54484 16.2752C9.43186 16.2699 9.32098 16.2393 9.20905 16.2277C8.99047 16.2055 8.76978 16.1886 8.5417 16.1686L8.53959 16.1707ZM7.81099 12.6966H7.83844V12.4707C7.83316 12.4707 7.82788 12.4707 7.8226 12.4696C7.81838 12.5456 7.81521 12.6217 7.81099 12.6966Z" fill="url(#paint1_linear_593_54735)"/>
<defs>
<linearGradient id="paint0_linear_593_54735" x1="12.3068" y1="7.73505" x2="17.8389" y2="7.73505" gradientUnits="userSpaceOnUse">
<stop stop-color="#E4889E"/>
<stop offset="0.58" stop-color="#AC63C4"/>
<stop offset="1" stop-color="#8347E2"/>
</linearGradient>
<linearGradient id="paint1_linear_593_54735" x1="-0.000860043" y1="11.7283" x2="14.908" y2="11.7283" gradientUnits="userSpaceOnUse">
<stop stop-color="#E4889E"/>
<stop offset="0.58" stop-color="#AC63C4"/>
<stop offset="1" stop-color="#8347E2"/>
</linearGradient>
</defs>
</svg>
