<svg width="17" height="17" viewBox="0 0 17 17" fill="none" xmlns="http://www.w3.org/2000/svg">
<g clip-path="url(#clip0_593_54747)">
<path d="M15.6498 13.4885H9.57123C9.15855 9.719 8.74587 5.95641 8.33203 2.17773H16.8878C16.4752 5.95181 16.0625 9.71441 15.6498 13.4885ZM12.6088 5.15957C12.4588 5.33524 12.3263 5.47876 12.2077 5.63147C11.7532 6.2136 11.3789 6.83706 11.2777 7.58108C11.1999 8.15058 11.3835 8.62823 11.8811 8.94627C12.346 9.24365 12.8401 9.24939 13.3132 8.96465C13.8189 8.65808 14.0235 8.18503 13.9479 7.61438C13.8201 6.64417 13.2714 5.89096 12.6099 5.15957H12.6088Z" fill="url(#paint0_linear_593_54747)"/>
<path d="M9.57474 13.6758H15.6394C15.644 13.7424 15.651 13.8021 15.651 13.8629C15.651 14.6609 15.6521 15.4589 15.651 16.258C15.651 16.738 15.3801 17.0021 14.8907 17.0021C13.3725 17.0021 11.8532 17.0021 10.335 17.0021C9.84675 17.0021 9.5759 16.7368 9.57474 16.2569C9.57357 15.4038 9.57474 14.5507 9.57474 13.6758ZM13.6248 15.9928C13.6248 15.762 13.6306 15.5554 13.6236 15.3475C13.6167 15.1466 13.4969 15.01 13.3016 15.0065C12.839 14.9985 12.3763 14.9985 11.9136 15.0065C11.7486 15.01 11.6265 15.1156 11.6125 15.2752C11.5916 15.5129 11.6067 15.7528 11.6067 15.9917H13.6248V15.9928Z" fill="url(#paint1_linear_593_54747)"/>
<path d="M17.0005 1.99405H8.22266C8.22266 1.75178 8.22266 1.51181 8.22266 1.27184C8.22266 0.993983 8.22266 0.717271 8.22266 0.439411C8.22382 0.113327 8.33425 0.00195312 8.66556 0.00195312C10.8371 0.00195312 13.0086 0.00195312 15.1812 0.00195312C15.645 0.00195312 16.1089 0.00195312 16.5727 0.00195312C16.8784 0.00195312 16.9993 0.116771 17.0005 0.411855C17.0028 0.931982 17.0005 1.45096 17.0005 1.99405Z" fill="url(#paint2_linear_593_54747)"/>
<path d="M11.2604 11.6309C11.2604 11.8444 11.2604 12.0419 11.2604 12.2394C11.2604 13.4806 11.2627 14.7229 11.2604 15.9641C11.2592 16.5083 10.9698 16.8781 10.4722 16.9791C10.3804 16.9975 10.2839 16.9986 10.1897 16.9986C7.15219 16.9986 4.11349 16.9998 1.07595 16.9986C0.417989 16.9986 0.00298643 16.5899 0.00298643 15.9388C0.000661489 14.5541 0.00298643 13.1694 0.00298643 11.7859C0.00298643 11.7376 0.00298643 11.6894 0.00298643 11.6309H11.2627H11.2604Z" fill="url(#paint3_linear_593_54747)"/>
<path d="M1.10938 11.6318C1.27561 10.2081 1.5639 8.85324 2.73219 7.85547C2.88447 8.04722 3.01699 8.23552 3.1716 8.4043C3.88885 9.18851 4.80836 9.634 5.81971 9.91761C6.71947 10.1702 7.64247 10.2598 8.57361 10.2735C9.40013 10.2862 10.0244 10.8086 10.1778 11.6318H1.10938Z" fill="url(#paint4_linear_593_54747)"/>
</g>
<defs>
<linearGradient id="paint0_linear_593_54747" x1="8.33319" y1="7.83368" x2="16.8878" y2="7.83368" gradientUnits="userSpaceOnUse">
<stop stop-color="#E4889E"/>
<stop offset="0.58" stop-color="#AC63C4"/>
<stop offset="1" stop-color="#8347E2"/>
</linearGradient>
<linearGradient id="paint1_linear_593_54747" x1="9.57357" y1="15.3384" x2="15.6521" y2="15.3384" gradientUnits="userSpaceOnUse">
<stop stop-color="#E4889E"/>
<stop offset="0.58" stop-color="#AC63C4"/>
<stop offset="1" stop-color="#8347E2"/>
</linearGradient>
<linearGradient id="paint2_linear_593_54747" x1="8.22266" y1="0.997428" x2="17.0005" y2="0.997428" gradientUnits="userSpaceOnUse">
<stop stop-color="#E4889E"/>
<stop offset="0.58" stop-color="#AC63C4"/>
<stop offset="1" stop-color="#8347E2"/>
</linearGradient>
<linearGradient id="paint3_linear_593_54747" x1="0.000661489" y1="14.3153" x2="11.2604" y2="14.3153" gradientUnits="userSpaceOnUse">
<stop stop-color="#E4889E"/>
<stop offset="0.58" stop-color="#AC63C4"/>
<stop offset="1" stop-color="#8347E2"/>
</linearGradient>
<linearGradient id="paint4_linear_593_54747" x1="1.10938" y1="9.74423" x2="10.1778" y2="9.74423" gradientUnits="userSpaceOnUse">
<stop stop-color="#E4889E"/>
<stop offset="0.58" stop-color="#AC63C4"/>
<stop offset="1" stop-color="#8347E2"/>
</linearGradient>
<clipPath id="clip0_593_54747">
<rect width="17" height="17" fill="white"/>
</clipPath>
</defs>
</svg>
