<svg width="20" height="17" viewBox="0 0 20 17" fill="currentColor" xmlns="http://www.w3.org/2000/svg">
<path d="M20 1.92708C19.2643 2.2526 18.4733 2.47396 17.6432 2.57161C18.4896 2.0638 19.1406 1.25977 19.4466 0.302734C18.6556 0.771484 17.7767 1.11328 16.8424 1.29883C16.0938 0.501301 15.026 0 13.8477 0C11.582 0 9.74284 1.83919 9.74284 4.10482C9.74284 4.42708 9.77865 4.73958 9.85026 5.03906C6.4388 4.86979 3.41471 3.23568 1.39323 0.751953C1.03841 1.35742 0.836588 2.0638 0.836588 2.81575C0.836588 4.23828 1.55924 5.49479 2.66276 6.23047C1.98893 6.20768 1.35742 6.02539 0.804037 5.71615C0.804037 5.73568 0.804037 5.75195 0.804037 5.76823C0.804037 7.75716 2.2168 9.41732 4.09505 9.79167C3.75 9.88607 3.38867 9.93815 3.01432 9.93815C2.75065 9.93815 2.49023 9.91211 2.24284 9.86328C2.76367 11.4941 4.2806 12.679 6.07422 12.7148C4.67122 13.8151 2.90039 14.4694 0.979817 14.4694C0.647786 14.4694 0.322266 14.4499 0 14.4108C1.81641 15.5762 3.97135 16.2565 6.28906 16.2565C13.8379 16.2565 17.9655 10.0033 17.9655 4.58008C17.9655 4.4043 17.959 4.22526 17.9525 4.04948C18.7533 3.47005 19.4499 2.7474 20 1.92708Z"/>
</svg>