<svg width="150" height="32" viewBox="0 0 150 32" fill="none" xmlns="http://www.w3.org/2000/svg">
<path d="M65.9623 2.3606C70.839 2.3606 75.0712 4.7205 77.3686 8.44029L74.1441 10.8002C72.2497 7.88039 69.5091 6.24029 66.0025 6.24029C60.5614 6.24029 56.41 10.4002 56.41 15.9999C56.41 21.5997 60.5614 25.7596 66.0025 25.7596C69.5091 25.7596 72.2497 24.1197 74.1441 21.1997L77.3686 23.5596C75.1113 27.2796 70.9198 29.6395 65.9623 29.6395C58.3849 29.7593 51.8152 23.5596 51.9765 15.9999C51.8152 8.44029 58.3849 2.24055 65.9623 2.3606Z" fill="white"/>
<path d="M93.5318 13.2802H92.242C88.8968 13.2802 86.438 15.2401 86.438 18.7198V29.1994H82.2061V9.56013H86.1559V12.12C86.8431 11.2567 87.719 10.5597 88.7175 10.0816C89.716 9.60353 90.8109 9.35691 91.9195 9.36039C92.4632 9.3602 93.0048 9.42729 93.5318 9.56012V13.2802Z" fill="white"/>
<path d="M99.9808 20.76C100.505 23.9597 103.044 25.9196 106.43 25.9196C108.485 25.9196 110.42 25.1597 112.193 23.5998L114.208 26.4797C113.167 27.4972 111.932 28.3001 110.576 28.8424C109.221 29.3847 107.77 29.6557 106.309 29.6397C100.263 29.6397 95.6683 25.1998 95.6683 19.4001C95.5473 13.7602 100.303 9.00034 105.906 9.12039C111.145 9.12039 115.055 13.0003 115.055 18.1201C115.042 19.0089 114.934 19.8939 114.733 20.76L99.9808 20.76ZM110.823 17.48C110.782 14.4803 108.525 12.6803 105.744 12.6803C102.963 12.6803 100.706 14.5602 100.061 17.48H110.823Z" fill="white"/>
<path d="M120.456 23.1995C122.189 24.9995 123.922 25.9993 126.018 25.9993C127.832 25.9993 129.202 25.2394 129.202 23.7995C129.202 22.6396 128.356 22.1597 126.421 21.3597L124.406 20.5196C120.9 19.0798 119.247 17.5597 119.247 14.7998C119.247 11.28 122.189 9.12012 126.22 9.12012C129.081 9.12012 131.339 10.1201 133.072 12.16L130.774 14.76C130.177 14.1339 129.459 13.6341 128.662 13.2904C127.866 12.9467 127.008 12.7663 126.139 12.76C124.487 12.76 123.439 13.3998 123.439 14.6399C123.439 15.6399 124.124 16.1597 126.059 16.9597L127.953 17.7199C131.701 19.2798 133.354 20.8795 133.354 23.6394C133.354 25.5193 132.669 26.9993 131.258 28.0792C129.847 29.1193 128.114 29.6394 126.018 29.6394C124.483 29.6609 122.963 29.329 121.578 28.6697C120.194 28.0104 118.982 27.0416 118.038 25.8394L120.456 23.1995Z" fill="white"/>
<path d="M150.001 29.1993C148.85 29.4642 147.675 29.6117 146.494 29.6395C141.94 29.6395 139.199 27.3993 139.199 22.7996V13.1999H135.975V9.56002H139.199V4.40039H143.471V9.56002H149.356V13.1999H143.471V22.4397C143.471 24.9595 144.801 25.8394 147.381 25.8394C147.985 25.8394 148.832 25.7595 150.001 25.6394V29.1993Z" fill="white"/>
<path d="M39.5568 31.1198C38.0627 31.0811 8.99976 30.5075 7.19609 30.2459C5.50681 30.001 4.6352 29.7477 4.1025 28.6882C3.57798 27.645 5.9317 24.6644 7.81267 21.5649C10.0196 17.9283 15.9599 10.085 17.1023 8.57055C18.4044 6.84435 20.0934 5.00213 22.1044 5.08359C24.4218 5.17743 25.7256 6.53303 27.8988 8.86703C28.637 9.65983 32.1662 13.5607 33.8713 15.1979C33.9332 15.2558 34.0111 15.2941 34.095 15.308C34.179 15.322 34.2652 15.3108 34.3427 15.276C34.3955 15.2549 34.4427 15.2219 34.4805 15.1796C34.5182 15.1374 34.5457 15.087 34.5605 15.0324C34.5754 14.9779 34.5773 14.9207 34.5661 14.8652C34.555 14.8098 34.531 14.7578 34.4961 14.7131C34.2402 14.3994 29.9854 7.17455 28.0327 4.57989C26.1589 2.09013 24.7774 0 21.6856 0C19.4072 0 18.3427 0.937669 16.7805 2.43628C14.7531 4.38126 3.25961 21.8625 2.01126 23.7715C-0.219646 27.1829 -0.430135 28.9954 0.577735 30.3402C0.978763 30.8753 2.40294 31.6944 6.67117 31.831C10.5747 31.956 20.8203 31.984 20.8203 31.984C27.6115 32.0606 38.9047 31.838 39.4993 31.82C40.0285 31.804 40.031 31.6388 40.0275 31.496C40.0247 31.3783 40.0874 31.1336 39.5568 31.1198Z" fill="url(#paint0_linear_2845_16988)"/>
<defs>
<linearGradient id="paint0_linear_2845_16988" x1="20.0143" y1="-0.337931" x2="20.0143" y2="31.6621" gradientUnits="userSpaceOnUse">
<stop stop-color="#FC907E"/>
<stop offset="0.99" stop-color="#9F6EED"/>
</linearGradient>
</defs>
</svg>
