<svg width="80" height="80" viewBox="0 0 80 80" fill="none" xmlns="http://www.w3.org/2000/svg">
<path d="M19.078 62.2968C25.9326 62.2968 31.4893 56.7401 31.4893 49.8855C31.4893 43.0309 25.9326 37.4741 19.078 37.4741C12.2234 37.4741 6.66663 43.0309 6.66663 49.8855C6.66663 56.7401 12.2234 62.2968 19.078 62.2968Z" fill="url(#paint0_linear_6_352)"/>
<path d="M11.5787 50.5056L15.7374 53.8594C15.9655 54.0434 16.2483 54.1462 16.5413 54.1518C16.8343 54.1574 17.1208 54.0653 17.3558 53.8902L26.4465 47.1128" stroke="url(#paint1_linear_6_352)" stroke-width="3" stroke-miterlimit="10" stroke-linecap="round"/>
<path d="M17.547 56.5864H17.756C17.6863 56.5439 17.6158 56.5032 17.547 56.4595V56.5864Z" fill="#5E428D"/>
<path d="M61.1686 24.8004L60.9669 16.6924L51.2495 16.6869C51.1844 18.8372 50.5731 20.9356 49.4732 22.7845C48.3733 24.6334 46.8209 26.172 44.9623 27.2554C43.0801 28.2973 40.9637 28.843 38.8124 28.8412C36.6611 28.8395 34.5456 28.2903 32.6651 27.2453C30.8083 26.1588 29.2585 24.6177 28.1616 22.767C27.0648 20.9163 26.4569 18.8169 26.3953 16.6665L16.6132 16.7163L16.5776 35.0885C19.6746 34.4441 22.878 34.5173 25.9423 35.3025C29.0201 36.1063 31.7145 37.9725 33.5492 40.5712C35.2187 43.1839 35.9139 46.3015 35.5126 49.376C35.0985 52.4336 33.9371 55.342 32.1312 57.8438L60.9817 57.7993L61.1006 49.5447C61.0967 49.8208 65.6512 48.4377 66.0327 48.2608C67.6193 47.5262 69.06 46.5109 70.2854 45.2639C71.4892 43.9434 72.3739 42.3643 72.8714 40.6482C73.369 38.9321 73.4661 37.1247 73.1554 35.3651C72.9349 33.8808 72.4452 32.4493 71.7103 31.141C70.6296 29.2815 69.0967 27.7253 67.2537 26.6169C65.4108 25.5084 63.3176 24.8836 61.1686 24.8004V24.8004Z" stroke="url(#paint2_linear_6_352)" stroke-width="2" stroke-miterlimit="10"/>
<defs>
<linearGradient id="paint0_linear_6_352" x1="6.66663" y1="49.8855" x2="31.4893" y2="49.8855" gradientUnits="userSpaceOnUse">
<stop stop-color="#F18D7F"/>
<stop offset="0.99" stop-color="#826DAE"/>
</linearGradient>
<linearGradient id="paint1_linear_6_352" x1="10.4582" y1="50.6324" x2="27.5671" y2="50.6324" gradientUnits="userSpaceOnUse">
<stop stop-color="white"/>
<stop offset="0.99" stop-color="white"/>
</linearGradient>
<linearGradient id="paint2_linear_6_352" x1="15.8288" y1="37.2544" x2="74.0515" y2="37.2544" gradientUnits="userSpaceOnUse">
<stop stop-color="#F18D7F"/>
<stop offset="0.99" stop-color="#826DAE"/>
</linearGradient>
</defs>
</svg>
