<svg width="80" height="80" viewBox="0 0 80 80" fill="none" xmlns="http://www.w3.org/2000/svg">
<path d="M55.1411 32.0846C58.0241 33.2636 59.2389 35.3595 58.9153 38.4563C59.8424 38.5977 60.7201 38.966 61.4704 39.5285C62.2208 40.091 62.8204 40.8302 63.2161 41.6804C63.5881 42.5524 63.7312 43.5049 63.6319 44.4476C63.5326 45.3904 63.1942 46.2922 62.6487 47.0675C63.1839 47.3572 63.6728 47.5803 64.1184 47.8701C64.756 48.2758 65.297 48.816 65.7036 49.453C66.1102 50.0899 66.3725 50.8081 66.4722 51.5571C66.5718 52.3062 66.5063 53.0679 66.2804 53.789C66.0544 54.5101 65.6734 55.173 65.1641 55.7312C60.7587 60.2896 56.3843 64.9045 51.6714 69.1328C48.4271 71.9668 44.2285 73.4645 39.9229 73.3237C35.6174 73.1829 31.5256 71.414 28.4734 68.3741C26.4147 66.3626 24.3794 64.3273 22.3674 62.2682C19.2675 59.1576 17.4887 54.9699 17.4025 50.5793C17.1905 44.4497 17.0458 38.3155 16.6847 32.1944C16.4776 28.6828 18.0648 27.1933 20.5924 26.5761C21.9324 26.2693 23.3388 26.4753 24.5346 27.1535C25.7303 27.8317 26.6289 28.933 27.0534 30.2405C28.0253 32.9916 28.9103 35.7733 29.8375 38.5402C30.5303 40.6076 31.3513 40.7974 32.9059 39.243C40.9594 31.1905 49.0122 23.1373 57.0643 15.0833C59.0944 13.0548 61.5855 12.6037 63.7699 13.8347C64.4939 14.2366 65.1135 14.8029 65.5788 15.488C66.044 16.1731 66.3419 16.9579 66.4485 17.7791C66.5551 18.6004 66.4675 19.4352 66.1926 20.2163C65.9177 20.9975 65.4632 21.7032 64.8658 22.2767C61.9512 25.2608 58.9745 28.184 56.0274 31.1363C55.7392 31.425 55.4695 31.7321 55.1411 32.0846ZM40.4744 70.6356C44.1509 70.705 47.708 69.3307 50.3828 66.8074C54.6215 62.6703 58.7888 58.4596 62.9646 54.2584C63.4831 53.7912 63.7973 53.1389 63.8394 52.4421C63.8816 51.7454 63.6483 51.06 63.1898 50.5337C62.9654 50.2713 62.6914 50.0557 62.3834 49.8995C62.0755 49.7433 61.7397 49.6495 61.3953 49.6235C61.051 49.5975 60.7049 49.6398 60.377 49.7479C60.0491 49.8561 59.7457 50.0279 59.4844 50.2537C58.7533 50.7991 58.0613 51.0484 57.3955 50.2933C56.7128 49.5191 57.1152 48.8365 57.7341 48.2211C58.6215 47.3387 59.5366 46.4799 60.3695 45.5481C60.7966 45.0798 61.0353 44.4701 61.0396 43.8363C61.0439 43.2025 60.8135 42.5896 60.3928 42.1156C59.9724 41.6158 59.3817 41.2895 58.7348 41.1997C58.0879 41.1099 57.4307 41.263 56.8901 41.6294C56.7148 41.741 56.5576 41.9859 56.3908 41.987C55.7886 41.991 54.943 42.1356 54.6515 41.8113C54.3592 41.4863 54.4703 40.6046 54.6805 40.0768C54.8812 39.5728 55.486 39.2461 55.8269 38.7784C56.1947 38.2657 56.3668 37.6382 56.312 37.0096C56.2572 36.3809 55.9791 35.7927 55.528 35.3514C55.077 34.9101 54.4828 34.6448 53.8531 34.6037C53.2234 34.5626 52.5998 34.7484 52.0953 35.1273C51.7988 35.3578 51.5228 35.6134 51.2704 35.8915C50.6114 36.5856 49.8603 37.1192 49.0257 36.2811C48.2045 35.4565 48.7064 34.7005 49.3924 34.0216C51.2306 32.2024 53.0608 30.3751 54.8831 28.5397C57.5957 25.8249 60.3253 23.1265 63.0097 20.384C63.2695 20.1406 63.4774 19.8471 63.6207 19.5212C63.7641 19.1953 63.84 18.8438 63.8438 18.4878C63.8477 18.1318 63.7794 17.7787 63.643 17.4498C63.5067 17.1209 63.3052 16.823 63.0507 16.5741C62.7965 16.3255 62.4953 16.1301 62.1647 15.9994C61.8341 15.8686 61.4807 15.8052 61.1253 15.8127C60.7698 15.8202 60.4195 15.8985 60.0947 16.0431C59.7699 16.1877 59.4772 16.3956 59.2337 16.6547C59.0189 16.8522 58.8205 17.0673 58.614 17.2739C50.5917 25.2991 42.5688 33.3238 34.5454 41.3479C31.9268 43.9645 28.6123 43.1765 27.4285 39.6639C26.47 36.8199 25.554 33.9612 24.5643 31.1282C24.3421 30.4209 23.8589 29.8248 23.213 29.4611C22.567 29.0973 21.8068 28.9933 21.0868 29.17C19.7813 29.4444 19.0899 30.433 19.1632 32.1081C19.2195 33.3972 19.4556 34.6785 19.5076 35.9675C19.703 40.8033 19.8533 45.6409 20.025 50.4777C20.0735 52.423 20.5068 54.3394 21.2998 56.1163C22.0928 57.8933 23.2298 59.4956 24.6452 60.8309C26.5231 62.6693 28.3514 64.5585 30.2291 66.3973C31.5698 67.7487 33.1662 68.8196 34.9253 69.5473C36.6844 70.275 38.5708 70.6449 40.4744 70.6356V70.6356Z" fill="url(#paint0_linear_6_337)"/>
<path d="M33.2685 23.3474C32.8681 23.8565 32.5905 24.5343 32.1169 24.7248C31.8238 24.8448 31.5078 24.8984 31.1915 24.882C30.8753 24.8655 30.5665 24.7793 30.2875 24.6296C27.8453 22.5528 25.4791 20.3839 23.1431 18.1865C22.9715 18.0302 22.8347 17.8396 22.7414 17.6271C22.6482 17.4145 22.6006 17.1848 22.6017 16.9527C22.6028 16.7206 22.6527 16.4913 22.748 16.2797C22.8434 16.0681 22.9821 15.8789 23.1552 15.7243C23.2994 15.5557 23.4768 15.4188 23.6764 15.3221C23.8761 15.2254 24.0935 15.171 24.3151 15.1624C24.5368 15.1537 24.7578 15.1909 24.9643 15.2718C25.1709 15.3526 25.3585 15.4752 25.5154 15.632C27.8536 17.7045 30.1681 19.8036 32.4588 21.9292C32.7914 22.3633 33.0638 22.8404 33.2685 23.3474V23.3474Z" fill="url(#paint1_linear_6_337)"/>
<path d="M37.8398 15.6979C37.7888 16.9033 37.3721 17.6232 36.3481 17.7896C36.1443 17.8435 35.9318 17.8557 35.7232 17.8254C35.5146 17.7952 35.3142 17.7231 35.1342 17.6134C34.9542 17.5038 34.7981 17.359 34.6754 17.1876C34.5528 17.0162 34.466 16.8218 34.4203 16.616C33.6888 14.0153 32.9707 11.4098 32.3201 8.78806C32.2583 8.57454 32.2421 8.35044 32.2724 8.13025C32.3027 7.91006 32.3789 7.69868 32.496 7.50979C32.6132 7.3209 32.7687 7.1587 32.9524 7.03369C33.1362 6.90867 33.3442 6.82363 33.5629 6.78405C33.7591 6.70236 33.9703 6.66243 34.1828 6.66683C34.3953 6.67123 34.6046 6.71985 34.7973 6.80959C34.9899 6.89933 35.1618 7.02823 35.302 7.18807C35.4421 7.3479 35.5474 7.53518 35.6111 7.73796C36.4425 10.4367 37.1435 13.1757 37.8398 15.6979Z" fill="url(#paint2_linear_6_337)"/>
<path d="M44.4221 20.8987C42.8935 20.8802 41.9713 19.7742 42.4185 18.6553C43.266 16.5353 44.2294 14.4543 45.2745 12.424C45.3799 12.2277 45.5256 12.0559 45.7021 11.9199C45.8786 11.7839 46.0819 11.6869 46.2986 11.6351C46.5153 11.5833 46.7406 11.5779 46.9595 11.6194C47.1784 11.6608 47.3861 11.7481 47.5688 11.8756C47.7645 11.9568 47.9414 12.0773 48.0886 12.2297C48.2357 12.3821 48.35 12.5631 48.4243 12.7615C48.4986 12.9598 48.5313 13.1714 48.5204 13.3829C48.5096 13.5945 48.4554 13.8016 48.3611 13.9913C47.4949 16.0174 46.5823 18.0276 45.5785 19.9879C45.3362 20.4611 44.6665 20.7153 44.4221 20.8987Z" fill="url(#paint3_linear_6_337)"/>
<defs>
<linearGradient id="paint0_linear_6_337" x1="16.6666" y1="43.2455" x2="66.5281" y2="43.2455" gradientUnits="userSpaceOnUse">
<stop stop-color="#F18D7F"/>
<stop offset="0.99" stop-color="#826DAE"/>
</linearGradient>
<linearGradient id="paint1_linear_6_337" x1="22.6015" y1="20.0202" x2="33.2685" y2="20.0202" gradientUnits="userSpaceOnUse">
<stop stop-color="#F18D7F"/>
<stop offset="0.99" stop-color="#826DAE"/>
</linearGradient>
<linearGradient id="paint2_linear_6_337" x1="32.2599" y1="12.2566" x2="37.8398" y2="12.2566" gradientUnits="userSpaceOnUse">
<stop stop-color="#F18D7F"/>
<stop offset="0.99" stop-color="#826DAE"/>
</linearGradient>
<linearGradient id="paint3_linear_6_337" x1="42.3054" y1="16.2562" x2="48.518" y2="16.2562" gradientUnits="userSpaceOnUse">
<stop stop-color="#F18D7F"/>
<stop offset="0.99" stop-color="#826DAE"/>
</linearGradient>
</defs>
</svg>
