<svg width="24" height="24" viewBox="0 0 24 24" fill="none" xmlns="http://www.w3.org/2000/svg">
<path d="M2.10733 20.5134L4.15377 21.4991C4.17986 21.512 4.20807 21.5181 4.23642 21.5181C4.27173 21.5181 4.3066 21.5083 4.33765 21.4889C4.39309 21.4543 4.42655 21.3933 4.42655 21.3278V19.1563C4.42655 19.0835 4.38458 19.0167 4.31894 18.9848L2.2725 18.0014C2.21338 17.9727 2.14405 17.9769 2.0889 18.0116C2.03346 18.0465 2 18.1074 2 18.1728V20.342C1.99986 20.4155 2.04154 20.482 2.10733 20.5134Z" fill="url(#paint0_linear_3648_20431)"/>
<path d="M2.6211 17.4134C2.6211 17.4867 2.66307 17.5532 2.72871 17.5849L4.62896 18.501C4.65504 18.5139 4.6834 18.52 4.71161 18.52C4.73968 18.52 4.76818 18.5139 4.79398 18.5013L6.69481 17.5879C6.76074 17.5562 6.80285 17.4897 6.80285 17.4166C6.80313 17.3433 6.76088 17.2766 6.69524 17.2449L4.7947 16.3296C4.74239 16.3041 4.68171 16.3044 4.62981 16.3293L2.72899 17.2422C2.66306 17.2737 2.62109 17.3403 2.62109 17.4134L2.6211 17.4134Z" fill="url(#paint1_linear_3648_20431)"/>
<path d="M7.15156 18.0013L5.10468 18.9847C5.03875 19.0166 4.99707 19.0832 4.99707 19.1563V21.3277C4.99707 21.3932 5.03053 21.4539 5.08597 21.4888C5.11701 21.5082 5.15189 21.518 5.1872 21.518C5.21527 21.518 5.24348 21.5119 5.26985 21.499L7.31644 20.5134C7.38208 20.4816 7.42405 20.4153 7.42405 20.3421V18.1729C7.42405 18.1074 7.39059 18.0467 7.33515 18.0117C7.27943 17.9768 7.21025 17.9728 7.15155 18.0013L7.15156 18.0013Z" fill="url(#paint2_linear_3648_20431)"/>
<path d="M9.56058 18.0014C9.5016 17.9727 9.43213 17.9769 9.37698 18.0116C9.3214 18.0465 9.28809 18.1074 9.28809 18.1728V20.342C9.28809 20.415 9.32991 20.4817 9.39555 20.5133L11.4417 21.4989C11.4678 21.5118 11.4961 21.5179 11.5244 21.5179C11.5597 21.5179 11.5947 21.5081 11.6256 21.4887C11.681 21.4541 11.7145 21.3932 11.7145 21.3277V19.1562C11.7145 19.0833 11.6725 19.0165 11.6066 18.9846L9.56058 18.0014Z" fill="url(#paint3_linear_3648_20431)"/>
<path d="M12.4753 21.5183C12.5034 21.5183 12.5316 21.5122 12.5577 21.4993L14.6038 20.5136C14.6697 20.4819 14.7114 20.4155 14.7114 20.3424V18.1731C14.7114 18.1076 14.678 18.0469 14.6225 18.0119C14.5675 17.9775 14.4982 17.9732 14.4392 18.0017L12.3928 18.9851C12.3268 19.017 12.2852 19.0836 12.2852 19.1567V21.3281C12.2852 21.3936 12.3186 21.4543 12.3741 21.4892C12.4051 21.5085 12.44 21.5183 12.4753 21.5183H12.4753Z" fill="url(#paint4_linear_3648_20431)"/>
<path d="M12.0006 18.5201C12.0286 18.5201 12.0568 18.514 12.0829 18.5014L13.9835 17.5881C14.0494 17.5562 14.0911 17.4898 14.0911 17.4165C14.0911 17.3432 14.0491 17.2767 13.9836 17.245L12.0831 16.3296C12.0308 16.3041 11.9701 16.3044 11.9182 16.3293L10.0181 17.2422C9.95213 17.274 9.91016 17.3403 9.91016 17.4135C9.91016 17.4868 9.95212 17.5533 10.0178 17.5851L11.9179 18.5011C11.9441 18.514 11.9722 18.5201 12.0006 18.5201L12.0006 18.5201Z" fill="url(#paint5_linear_3648_20431)"/>
<path d="M21.9999 20.3421V18.1728C21.9999 18.1073 21.9666 18.0467 21.911 18.0116C21.8556 17.9768 21.7861 17.9728 21.7277 18.0014L19.6811 18.9848C19.6151 19.0167 19.5732 19.0834 19.5732 19.1564V21.3279C19.5732 21.3934 19.607 21.454 19.6621 21.4889C19.6932 21.5083 19.7281 21.5181 19.7634 21.5181C19.7914 21.5181 19.8199 21.512 19.846 21.4991L21.8926 20.5135C21.958 20.4817 21.9999 20.4152 21.9999 20.3421H21.9999Z" fill="url(#paint6_linear_3648_20431)"/>
<path d="M19.2879 18.52C19.316 18.52 19.3442 18.5139 19.3702 18.5013L21.2714 17.5879C21.3375 17.5562 21.3795 17.4897 21.3795 17.4166C21.3795 17.3433 21.3375 17.2766 21.2718 17.2449L19.3706 16.3296C19.3186 16.3041 19.2576 16.3044 19.2057 16.3293L17.3052 17.2422C17.2391 17.274 17.1973 17.3403 17.1973 17.4135C17.1973 17.4868 17.2392 17.5533 17.3049 17.5851L19.2051 18.5011C19.2313 18.5138 19.2597 18.5199 19.2879 18.5199L19.2879 18.52Z" fill="url(#paint7_linear_3648_20431)"/>
<path d="M16.8484 18.0014C16.7893 17.9727 16.7199 17.9769 16.6648 18.0116C16.6093 18.0465 16.5762 18.1074 16.5762 18.1728V20.342C16.5762 20.415 16.618 20.4817 16.6836 20.5133L18.7301 21.4989C18.7562 21.5118 18.7844 21.5179 18.8127 21.5179C18.8478 21.5179 18.8829 21.5081 18.914 21.4887C18.9691 21.4541 19.0026 21.3932 19.0026 21.3277V19.1562C19.0026 19.0833 18.9606 19.0165 18.895 18.9846L16.8484 18.0014Z" fill="url(#paint8_linear_3648_20431)"/>
<path d="M4.71256 12.0345C4.44984 12.0345 4.2373 12.2472 4.2373 12.5098V15.0876C4.2373 15.3504 4.44997 15.5631 4.71256 15.5631C4.97527 15.5631 5.18781 15.3505 5.18781 15.0876V12.9853H11.525V14.8599C11.525 15.1226 11.7376 15.3354 12.0002 15.3354C12.2629 15.3354 12.4755 15.1226 12.4755 14.8599V12.9853H18.8127V15.0876C18.8127 15.3504 19.0253 15.5631 19.2879 15.5631C19.5506 15.5631 19.7632 15.3505 19.7632 15.0876L19.7634 12.5099C19.7634 12.2472 19.5508 12.0346 19.2882 12.0346L12.4755 12.0345V10.2329H14.7424C15.0052 10.2329 15.218 10.0201 15.218 9.75779L15.2178 6.32872L15.6036 6.60093C15.687 6.65949 15.7827 6.68784 15.8774 6.68784C16.0268 6.68784 16.1733 6.61752 16.2667 6.48666C16.4177 6.272 16.3666 5.9754 16.1519 5.82412L12.2741 3.08709C12.1099 2.97097 11.8902 2.97097 11.726 3.08709L7.84854 5.82412C7.63389 5.9754 7.58299 6.27244 7.73441 6.48666C7.88611 6.70102 8.18273 6.75221 8.39695 6.60107L8.78273 6.32886V9.75779C8.78273 10.0201 8.99554 10.2329 9.25827 10.2329H11.5249V12.0345L4.7126 12.0343L4.71256 12.0345Z" fill="url(#paint9_linear_3648_20431)"/>
<defs>
<linearGradient id="paint0_linear_3648_20431" x1="1.97441" y1="17.945" x2="5.27357" y2="20.2092" gradientUnits="userSpaceOnUse">
<stop stop-color="#FC907E"/>
<stop offset="0.99" stop-color="#9F6EED"/>
</linearGradient>
<linearGradient id="paint1_linear_3648_20431" x1="2.57699" y1="16.2872" x2="4.40228" y2="19.7417" gradientUnits="userSpaceOnUse">
<stop stop-color="#FC907E"/>
<stop offset="0.99" stop-color="#9F6EED"/>
</linearGradient>
<linearGradient id="paint2_linear_3648_20431" x1="4.97147" y1="17.945" x2="8.27081" y2="20.2097" gradientUnits="userSpaceOnUse">
<stop stop-color="#FC907E"/>
<stop offset="0.99" stop-color="#9F6EED"/>
</linearGradient>
<linearGradient id="paint3_linear_3648_20431" x1="9.2625" y1="17.945" x2="12.5615" y2="20.209" gradientUnits="userSpaceOnUse">
<stop stop-color="#FC907E"/>
<stop offset="0.99" stop-color="#9F6EED"/>
</linearGradient>
<linearGradient id="paint4_linear_3648_20431" x1="12.2596" y1="17.9455" x2="15.5584" y2="20.2094" gradientUnits="userSpaceOnUse">
<stop stop-color="#FC907E"/>
<stop offset="0.99" stop-color="#9F6EED"/>
</linearGradient>
<linearGradient id="paint5_linear_3648_20431" x1="9.86606" y1="16.2872" x2="11.6917" y2="19.7415" gradientUnits="userSpaceOnUse">
<stop stop-color="#FC907E"/>
<stop offset="0.99" stop-color="#9F6EED"/>
</linearGradient>
<linearGradient id="paint6_linear_3648_20431" x1="19.5476" y1="17.945" x2="22.8469" y2="20.2093" gradientUnits="userSpaceOnUse">
<stop stop-color="#FC907E"/>
<stop offset="0.99" stop-color="#9F6EED"/>
</linearGradient>
<linearGradient id="paint7_linear_3648_20431" x1="17.1532" y1="16.2872" x2="18.9783" y2="19.7419" gradientUnits="userSpaceOnUse">
<stop stop-color="#FC907E"/>
<stop offset="0.99" stop-color="#9F6EED"/>
</linearGradient>
<linearGradient id="paint8_linear_3648_20431" x1="16.5506" y1="17.945" x2="19.8496" y2="20.209" gradientUnits="userSpaceOnUse">
<stop stop-color="#FC907E"/>
<stop offset="0.99" stop-color="#9F6EED"/>
</linearGradient>
<linearGradient id="paint9_linear_3648_20431" x1="4.07356" y1="2.86715" x2="16.3607" y2="18.0513" gradientUnits="userSpaceOnUse">
<stop stop-color="#FC907E"/>
<stop offset="0.99" stop-color="#9F6EED"/>
</linearGradient>
</defs>
</svg>
