<svg width="80" height="80" viewBox="0 0 80 80" fill="none" xmlns="http://www.w3.org/2000/svg">
<path d="M39.1101 73.3286C33.8396 73.3281 28.5691 73.3268 23.2986 73.3247C22.8917 73.3529 22.4832 73.3002 22.0968 73.1696C21.7103 73.0391 21.3536 72.8333 21.0471 72.5642C20.7406 72.295 20.4904 71.9678 20.3111 71.6014C20.1318 71.2351 20.0268 70.8368 20.0022 70.4297C19.9777 69.6812 20.1579 68.9402 20.5236 68.2867C23.5266 62.6699 26.583 57.0817 29.6222 51.4843C31.0306 48.8902 32.4426 46.2979 33.8331 43.6942C33.9999 43.3855 34.0921 43.0421 34.1022 42.6914C34.1203 38.7324 34.1137 34.7733 34.1129 30.8143C34.1462 30.6431 34.1246 30.4657 34.0512 30.3075C33.9778 30.1492 33.8564 30.0182 33.7041 29.933C33.5632 29.8116 33.455 29.6569 33.3894 29.4829C33.3237 29.3089 33.3027 29.1212 33.3283 28.937C33.4042 28.7653 33.5212 28.6149 33.6689 28.499C33.8166 28.3831 33.9905 28.3054 34.1754 28.2726C37.4657 28.2248 40.7564 28.2243 44.0476 28.2709C44.2323 28.3097 44.4061 28.3889 44.5566 28.5028C44.7071 28.6167 44.8305 28.7625 44.918 28.9298C45.1226 29.3297 44.896 29.7192 44.5106 30.0161C44.4093 30.0964 44.3249 30.1961 44.2623 30.3093C44.1997 30.4224 44.1602 30.5469 44.1461 30.6755C44.1241 34.7235 44.1225 38.7715 44.1414 42.8196C44.1575 43.1477 44.251 43.4673 44.4143 43.7523C48.8314 51.9112 53.2566 60.0657 57.69 68.2159C57.9762 68.6529 58.1587 69.1496 58.2236 69.668C58.2884 70.1864 58.2339 70.7127 58.0641 71.2068C57.8332 71.8616 57.3948 72.4231 56.8155 72.8058C56.2362 73.1884 55.5477 73.3714 54.8548 73.3268C49.6066 73.3328 44.3583 73.3334 39.1101 73.3286ZM39.1058 71.3013V71.2981C44.3526 71.2981 49.5993 71.2975 54.8461 71.2962C56.0141 71.2953 56.5608 70.4507 56.0106 69.4191C54.3586 66.3218 52.6681 63.2452 51.0025 60.1551C50.9466 60.0117 50.8373 59.8955 50.6976 59.831C50.5578 59.7664 50.3985 59.7585 50.2531 59.8089C48.5037 60.1432 46.7023 60.0898 44.9758 59.6525C43.4486 59.1751 42.0004 58.4747 40.678 57.5739C39.1826 56.6132 37.4474 56.0921 35.6701 56.07C33.8929 56.0479 32.1452 56.5256 30.6264 57.4488C29.7732 57.9255 28.9273 58.4167 28.0969 58.9317C27.8791 59.0784 27.7011 59.2768 27.5787 59.5091C25.8105 62.7461 24.0894 66.0093 22.2791 69.2224C21.5981 70.4311 22.3736 71.3442 23.566 71.3292C28.7453 71.2643 33.9258 71.3013 39.1058 71.3013V71.3013ZM36.0601 30.2316C36.0601 30.5711 36.0602 30.834 36.0601 31.097C36.0596 35.0549 36.0704 39.0129 36.0431 42.9706C36.037 43.4531 35.9182 43.9274 35.6962 44.3559C33.8135 47.88 31.8959 51.3855 29.9903 54.8974C29.8807 55.0993 29.7854 55.3091 29.6243 55.6349C29.8679 55.5254 29.9839 55.4772 30.0965 55.422C31.8703 54.4751 33.8603 54.0071 35.8702 54.0643C37.88 54.1214 39.8403 54.7017 41.5574 55.7478C42.2898 56.167 42.9913 56.6433 43.7389 57.0323C45.6164 57.9648 47.7501 58.2487 49.8061 57.8397C49.6506 57.5369 49.5351 57.301 49.41 57.0704C47.1248 52.8562 44.8293 48.6475 42.5663 44.4214C42.3316 43.9766 42.2043 43.4831 42.1945 42.9803C42.1654 39.0004 42.1783 35.0202 42.1784 31.0401C42.1784 30.7818 42.1784 30.5234 42.1784 30.2316H36.0601Z" fill="url(#paint0_linear_6_345)"/>
<path d="M39.1059 71.3015C33.9258 71.3015 28.7453 71.2644 23.5661 71.3293C22.3736 71.3443 21.5981 70.4312 22.2791 69.2225C24.0894 66.0094 25.8105 62.7462 27.5787 59.5092C27.7011 59.2769 27.8791 59.0785 28.0969 58.9318C28.9273 58.4169 29.7732 57.9257 30.6264 57.449C32.1452 56.5258 33.8929 56.048 35.6701 56.0701C37.4474 56.0922 39.1826 56.6133 40.678 57.574C42.0004 58.4748 43.4486 59.1752 44.9758 59.6526C46.7023 60.0899 48.5037 60.1433 50.2531 59.8091C50.3986 59.7587 50.5579 59.7666 50.6976 59.8311C50.8373 59.8957 50.9466 60.0118 51.0025 60.1553C52.6681 63.2453 54.3587 66.322 56.0106 69.4192C56.5608 70.4508 56.0142 71.2954 54.8461 71.2963C49.5993 71.3006 44.3526 71.3012 39.1059 71.2982V71.3015Z" stroke="url(#paint1_linear_6_345)" stroke-miterlimit="10"/>
<path d="M41.8256 18.5134L41.9182 18.9861L41.2036 19.1727L39.1665 10.9317L39.8793 10.7529L40.0253 11.2305C41.0481 10.9789 42.0621 10.73 43.0759 10.48C48.0439 9.25503 53.012 8.03069 57.9802 6.80701C58.4649 6.67045 58.972 6.63292 59.4714 6.69667C59.9709 6.76041 60.4523 6.92413 60.8871 7.17804C61.3219 7.43195 61.7011 7.77086 62.002 8.17453C62.3029 8.5782 62.5194 9.03836 62.6385 9.52753C62.7577 10.0167 62.7771 10.5249 62.6955 11.0217C62.614 11.5186 62.4331 11.9939 62.1638 12.4193C61.8946 12.8447 61.5423 13.2115 61.1282 13.4978C60.714 13.7841 60.2464 13.984 59.7533 14.0856C56.6919 14.8393 53.6306 15.5934 50.5694 16.348C47.7835 17.0345 44.9977 17.7214 42.212 18.4087C42.0875 18.4394 41.9644 18.4756 41.8256 18.5134ZM51.2139 13.9858L51.5573 15.3325L53.0679 14.9596L52.7448 13.6035L53.4671 13.4437L53.8056 14.7786L55.2934 14.4093L54.9726 13.0634L55.6918 12.8847L56.0331 14.233C57.3527 13.904 58.636 13.632 59.8887 13.2578C60.4441 13.1112 60.9411 12.7975 61.3124 12.3592C61.6837 11.9209 61.9114 11.3792 61.9646 10.8072C62.0323 10.3156 61.9764 9.81495 61.802 9.35039C61.6276 8.88584 61.3401 8.47207 60.9657 8.1465C60.5912 7.82092 60.1415 7.59379 59.6572 7.48566C59.1729 7.37752 58.6693 7.39178 58.1919 7.52714C53.1268 8.76933 48.0632 10.0171 43.0009 11.2704C42.0712 11.4996 41.1418 11.73 40.1923 11.9647L41.6305 17.7812L44.0728 17.1761L43.7506 15.8269L44.4666 15.6512L44.8122 16.9967L46.3236 16.6218L45.9963 15.2771L46.7192 15.0979L47.056 16.4419L48.573 16.0683L48.2434 14.7165L48.9682 14.5427L49.3056 15.8874L50.8189 15.5136L50.4973 14.1659L51.2139 13.9858Z" stroke="url(#paint2_linear_6_345)" stroke-miterlimit="10"/>
<path d="M40.7258 21.1157C41.4453 22.0216 41.9713 23.0653 42.2715 24.1825C42.3599 24.6418 42.2631 25.1174 42.0021 25.5056C41.7411 25.8938 41.3372 26.1629 40.8785 26.2543C40.6144 26.2899 40.3457 26.2497 40.1035 26.1384C39.8614 26.0272 39.6559 25.8495 39.5108 25.626C39.3231 25.3771 39.1984 25.0864 39.1476 24.7788C39.0967 24.4712 39.1211 24.1558 39.2187 23.8597C39.5619 22.8662 40.0716 21.9384 40.7258 21.1157V21.1157Z" stroke="url(#paint3_linear_6_345)" stroke-miterlimit="10"/>
<defs>
<linearGradient id="paint0_linear_6_345" x1="19.9935" y1="50.7833" x2="58.2623" y2="50.7833" gradientUnits="userSpaceOnUse">
<stop stop-color="#F18D7F"/>
<stop offset="0.99" stop-color="#826DAE"/>
</linearGradient>
<linearGradient id="paint1_linear_6_345" x1="21.6979" y1="63.6994" x2="56.553" y2="63.6994" gradientUnits="userSpaceOnUse">
<stop stop-color="#F18D7F"/>
<stop offset="0.99" stop-color="#826DAE"/>
</linearGradient>
<linearGradient id="paint2_linear_6_345" x1="38.7707" y1="12.9653" x2="63.0738" y2="12.9653" gradientUnits="userSpaceOnUse">
<stop stop-color="#F18D7F"/>
<stop offset="0.99" stop-color="#826DAE"/>
</linearGradient>
<linearGradient id="paint3_linear_6_345" x1="38.7981" y1="23.5846" x2="42.6292" y2="23.5846" gradientUnits="userSpaceOnUse">
<stop stop-color="#F18D7F"/>
<stop offset="0.99" stop-color="#826DAE"/>
</linearGradient>
</defs>
</svg>
