<svg width="46" height="66" viewBox="0 0 46 66" fill="none" xmlns="http://www.w3.org/2000/svg">
<path d="M0.00396802 22.1111C0.365073 21.0357 0.592581 19.8902 1.11109 18.8981C2.72482 15.8109 5.39805 14.2025 8.82921 14.1747C12.2352 14.1469 14.8489 15.7633 16.5949 18.7222C16.6756 18.8585 16.7523 18.9987 16.8449 19.1601C17.1373 18.0291 17.0711 17.6773 16.4203 16.8519C12.6916 12.1192 5.22874 12.0716 1.39812 16.7514C1.24469 16.9379 1.04231 17.0834 0.779088 17.3254C0.777766 16.2871 2.63884 14.5014 4.56076 13.7051C9.29613 11.7448 13.3939 12.7858 16.9097 16.5265C17.1121 15.7077 16.915 15.1376 16.2722 14.6006C12.2537 11.2409 6.96548 10.9062 2.59651 13.7766C2.38488 13.9154 2.15737 14.0292 1.87563 14.1892C1.95764 12.7977 6.00915 11.2885 9.29216 11.3335C12.2075 11.3745 14.6876 12.5543 16.8833 14.4432C17.1531 13.6681 16.8912 13.2184 16.3053 12.8123C12.4191 10.1298 8.28821 9.73165 3.91395 11.4075C3.64014 11.5134 3.34782 11.5716 2.93249 11.6893C3.62031 10.5213 7.34378 9.65097 10.0607 9.91816C12.5672 10.1655 14.8423 11.0491 16.8899 12.6099C17.0738 11.9287 16.9865 11.5028 16.382 11.1324C12.9072 9.00944 9.20751 8.47903 5.27107 9.42875C5.00388 9.49356 4.73008 9.52398 4.43114 9.43536C5.65202 8.52797 7.10966 8.48961 8.50381 8.5068C9.97998 8.52532 11.4919 8.68802 12.9164 9.06367C14.3093 9.43007 15.6122 10.143 16.9455 10.7012C17.1611 10.065 16.833 9.688 16.218 9.37451C13.2312 7.85337 10.1017 7.20524 6.76179 7.69729C6.49195 7.73697 6.21153 7.70259 5.9364 7.70259C5.91789 7.61 5.89936 7.51873 5.88084 7.42614C6.28031 7.29519 6.67977 7.16424 7.13215 7.01609C7.19299 6.6907 7.26574 6.30446 7.33849 5.91955L7.66389 5.905C7.69166 6.25684 7.71944 6.60869 7.75251 7.02403C8.2816 7.1854 8.6308 7.13646 8.70355 6.36663C8.76968 5.67088 9.02762 4.99231 9.20089 4.30582C9.33184 4.33227 9.46411 4.35741 9.59506 4.38386C9.43898 5.23702 9.28422 6.08886 9.11227 7.02932C9.41517 7.05048 9.67046 7.06768 9.9813 7.08884C10.2895 5.62855 10.5739 4.19471 11.3741 2.96854C11.4667 2.99897 11.5593 3.02939 11.6532 3.05849C11.2643 4.3627 10.8755 5.66823 10.4681 7.03064C10.8609 7.10604 11.0937 7.15101 11.4006 7.21053C11.812 5.21189 12.4535 3.30849 13.7934 1.7318C13.8767 1.75825 13.9601 1.7847 14.0434 1.81116C13.9706 2.03734 13.9164 2.27147 13.8225 2.48839C13.2643 3.77805 12.685 5.05713 12.144 6.35341C12.0262 6.63779 12.0395 6.97641 11.9852 7.33884C12.308 7.38513 12.5408 7.4182 12.7564 7.44862C13.0421 6.53594 13.2339 5.62723 13.6122 4.80449C14.005 3.94868 14.5196 3.13124 15.0897 2.38125C15.6069 1.70005 16.1558 0.97387 17.132 0.809852C15.1254 2.66961 13.7365 4.82433 13.3582 7.61264C13.6267 7.71316 13.8701 7.80444 14.1942 7.92613C14.6201 5.1947 15.8873 2.98839 18.1822 1.45799C19.6888 0.452719 21.3792 -0.0671174 23.1874 0.00695533C27.1477 0.169651 30.4981 2.78336 31.4875 6.34017C32.5457 10.1443 31.1859 14.4379 26.8857 16.8281C27.7244 16.9895 28.4003 17.0265 29.0643 16.4948C33.8261 12.6787 33.9928 5.49231 29.3976 1.48312C29.2032 1.31381 29.0206 1.13128 28.8315 0.955357C28.8831 0.865411 28.9347 0.775467 28.9862 0.684199C29.2402 0.824408 29.5286 0.924932 29.7428 1.11011C33.7282 4.56375 34.4319 10.3427 31.3791 14.7488C30.8632 15.4921 30.1979 16.1323 29.5669 16.8612C30.2627 17.008 30.7825 16.9379 31.2891 16.3479C34.7375 12.3374 35.1396 7.04255 32.2917 2.60083C32.1423 2.36803 32.0576 2.09422 32.0894 1.78603C34.0086 3.95397 34.7732 6.51477 34.6727 9.37451C34.5734 12.2316 33.4385 14.6681 31.5907 16.8228C32.383 17.1244 32.8446 16.8109 33.2335 16.2329C35.8327 12.3665 36.3234 8.27004 34.6092 3.92223C34.5007 3.64711 34.4253 3.36007 34.4901 3.02674C35.5126 4.34947 36.0046 5.89838 36.0232 7.52402C36.0403 9.14039 36.0046 10.815 35.6052 12.3639C35.2004 13.9326 34.3235 15.3797 33.6462 16.8969C34.133 17.0543 34.5377 16.8876 34.8988 16.3016C37.0747 12.7673 37.4874 8.99224 36.5364 5.01083C36.494 4.83491 36.4821 4.65237 36.4716 4.47116C36.4702 4.43941 36.5483 4.40371 36.5893 4.37064C37.3498 4.98306 37.7864 8.54516 37.4557 10.6827C37.1157 12.8797 36.379 14.9181 35.2097 16.8135C35.9068 17.1085 36.2771 16.8426 36.5747 16.2871C38.1779 13.2898 38.7255 10.1047 38.326 6.74229C38.3062 6.57959 38.248 6.41689 38.2599 6.25949C38.2691 6.14706 38.367 6.04256 38.4252 5.93542C38.5363 6.02007 38.7109 6.08489 38.7453 6.19335C38.8247 6.44732 38.8379 6.72377 38.8789 7.00022C39.2982 7.14308 39.7215 7.28725 40.1461 7.43142C40.1315 7.5055 40.117 7.57958 40.1024 7.65365H39.0297C39.0112 7.9711 38.998 8.22242 38.9821 8.48829C39.912 8.72109 40.7903 8.93933 41.6699 9.15891C41.6408 9.2925 41.613 9.4261 41.5839 9.5597C40.7506 9.41155 39.9173 9.2634 39.0271 9.106V9.97636C40.4133 10.3203 41.8418 10.5623 43.0667 11.3335L42.9781 11.639C41.6487 11.2435 40.3194 10.848 38.9808 10.4499C38.7004 11.1152 38.834 11.3414 39.4728 11.5676C40.9424 12.0874 42.3603 12.7567 43.7849 13.3969C43.9913 13.4895 44.1169 13.7607 44.1897 14.0662C42.4714 13.0808 40.7585 12.1985 38.7281 11.9684C38.6461 12.2184 38.5654 12.4604 38.4623 12.7726C41.3604 13.3149 43.7241 14.6006 45.4079 16.9458C45.359 17.0318 45.31 17.1178 45.2611 17.2037C45.101 17.1244 44.9026 17.082 44.7889 16.9604C42.5521 14.5861 41.5283 13.9922 38.3697 13.3004C38.2877 13.5887 38.2043 13.881 38.1184 14.184C43.1315 14.967 45.7955 18.8148 45.9899 22.6375C46.187 26.5078 43.4741 30.3516 39.8511 31.4085C35.4782 32.6849 31.5722 31.0196 29.0669 26.644C29.0775 27.6348 28.9386 28.3451 29.522 29.0712C33.383 33.8714 40.6911 33.9746 44.6275 29.2511C44.7902 29.0554 44.9714 28.8755 45.1447 28.689C45.2201 28.7326 45.2955 28.7763 45.3695 28.8199C45.269 29.0448 45.2121 29.3054 45.064 29.4905C41.1474 34.3622 33.6991 34.5301 29.5259 29.849C29.4201 29.7313 29.3103 29.6175 29.1344 29.431C28.9519 30.2339 29.0484 30.7802 29.6833 31.3212C33.7838 34.8079 39.1408 35.1333 43.6103 32.1201C43.7981 31.9931 44.0362 31.9402 44.3894 31.7961C43.7598 33.1413 39.871 34.8542 36.7189 34.6968C34.4689 34.5844 33.0483 34.0963 29.1119 31.6109C28.8672 32.3384 29.1542 32.7987 29.7719 33.218C33.7216 35.8939 37.8842 36.3238 42.2863 34.4971C42.5177 34.4005 42.7677 34.3463 43.0931 34.2471C42.6527 35.4084 38.3181 36.3687 36.0205 36.0883C33.4862 35.7788 31.1965 34.9309 29.1159 33.382C28.9823 34.0381 29.0127 34.468 29.6357 34.8476C33.0007 36.9018 36.58 37.5208 40.4199 36.6293C40.8418 36.5314 41.2678 36.4468 41.8392 36.3251C41.3299 37.12 40.6077 37.3885 37.58 37.4997C36.1382 37.5526 34.6422 37.3475 33.2441 36.9798C31.8208 36.6055 30.4889 35.8859 29.0947 35.3079C28.9135 35.8555 29.1026 36.2272 29.7164 36.5539C32.6886 38.1333 35.8247 38.7496 39.1646 38.3224C39.5152 38.2774 39.8723 38.2867 40.2268 38.2721C40.244 38.3753 40.2612 38.4785 40.2784 38.5816C39.8247 38.7073 39.3697 38.8343 38.9265 38.9573C38.8154 39.3925 38.7043 39.8316 38.5919 40.2695C38.5006 40.2549 38.4094 40.2404 38.3194 40.2258V39.0102C37.7083 38.7999 37.4014 38.9428 37.3155 39.6676C37.2308 40.3819 36.9755 41.0763 36.7943 41.78C36.6594 41.7496 36.5245 41.7192 36.3882 41.6887C36.5615 40.8105 36.7361 39.9322 36.9226 38.9877H36.1462C35.6647 40.4269 35.1991 41.8197 34.7335 43.2125L34.3235 43.1146C34.3631 42.8858 34.3777 42.649 34.4478 42.4308C34.8102 41.3065 35.1885 40.1874 35.5827 38.997C35.1792 38.9057 34.9504 38.8541 34.6383 38.784C34.1832 40.8647 33.5113 42.8263 32.1092 44.4096C31.9835 44.3527 31.8592 44.2958 31.7335 44.239C32.8552 42.5366 33.8459 40.7866 34.0179 38.6756C33.7309 38.6293 33.4954 38.5909 33.1952 38.542C32.6872 41.4797 31.305 43.8342 28.9175 45.526C28.8156 45.4466 28.7138 45.3686 28.6119 45.2892C29.227 44.6702 29.9055 44.1027 30.4386 43.4202C31.0021 42.6993 31.5074 41.907 31.8896 41.0776C32.2706 40.2509 32.469 39.3382 32.764 38.4097C32.4134 38.2774 32.1727 38.1875 31.9002 38.0843C30.7296 43.0485 27.8566 45.9744 22.5803 45.944C19.1848 45.9241 15.8833 43.4705 14.7431 40.2575C13.9759 38.0962 13.9839 35.9455 14.8476 33.8132C15.6942 31.7246 17.1915 30.2194 19.251 29.1308C18.042 28.8345 17.2113 29.2022 16.4243 29.9548C12.0567 34.1294 12.2405 40.78 16.8555 44.694C17.0619 44.8686 17.2087 45.1146 17.3224 45.3765C15.6492 44.9784 12.8252 41.3581 12.7537 37.5618C12.6902 34.1677 13.9865 31.3992 16.5751 29.1361C15.7233 28.8927 15.169 29.1123 14.6479 29.7181C11.2472 33.6836 10.9165 39.2139 13.8503 43.5498C13.9931 43.7614 14.1148 43.9876 14.2471 44.2072C14.1796 44.2733 14.1122 44.3395 14.0447 44.4056C13.8423 44.2231 13.599 44.0696 13.4429 43.8527C10.4773 39.7404 10.6678 33.8026 13.8781 29.8715C14.0619 29.6453 14.2365 29.4112 14.4429 29.1453C13.6942 28.8662 13.2339 29.1175 12.8331 29.7088C10.1572 33.6519 9.66782 37.8171 11.4985 42.2377C11.6096 42.5049 11.6704 42.7919 11.7948 43.2033C10.5831 42.5472 9.77363 39.1081 9.95749 36.1055C10.1149 33.5302 11.0871 31.267 12.5937 29.1506C11.9522 28.9138 11.5368 29.0302 11.1651 29.6308C8.94957 33.2101 8.50513 37.0301 9.52628 41.0671C9.56596 41.2218 9.59771 41.3792 9.61755 41.5379C9.62284 41.5816 9.5739 41.6332 9.44957 41.8792C9.26306 41.534 9.08052 41.3078 9.01306 41.0525C7.91387 36.9256 8.47471 33.0381 10.7194 29.4006C10.7604 29.3345 10.7749 29.2525 10.8186 29.1308C10.1678 28.8834 9.77099 29.0937 9.45618 29.6903C7.84378 32.7445 7.26178 35.9746 7.73002 39.3978C7.76706 39.6636 7.73531 39.9401 7.73531 40.2113C7.63611 40.2271 7.53558 40.2443 7.43637 40.2602C7.32262 39.8369 7.21019 39.4136 7.08982 38.9626C6.66522 38.8396 6.20227 38.706 5.73931 38.5724C5.75254 38.4917 5.76577 38.4123 5.779 38.3317H7.00781V37.5327C6.07132 37.2735 5.14541 37.0182 4.22082 36.7629C4.25125 36.6333 4.28167 36.505 4.31342 36.3753C5.17583 36.5473 6.03825 36.7179 6.984 36.9058C7.01178 36.6148 7.03559 36.3595 7.06336 36.0724C5.63614 35.6254 4.11368 35.4878 2.90736 34.5711C2.93513 34.4825 2.96159 34.3939 2.98936 34.3066C4.33855 34.7299 5.68773 35.1531 7.15067 35.6121C7.17051 35.173 7.18241 34.8912 7.19564 34.5804C5.1044 34.1902 3.21555 33.5011 1.65473 32.1215C1.68516 32.0394 1.71558 31.9588 1.746 31.8767C1.95896 31.9455 2.17853 31.9984 2.38356 32.0871C3.79094 32.7008 5.19567 33.3225 6.60173 33.9389C7.26442 34.2299 7.48531 33.9111 7.49457 33.2815C6.5938 32.9878 5.66392 32.7788 4.82134 32.3847C3.94569 31.9746 3.12428 31.4283 2.33197 30.8649C1.60182 30.345 0.943104 29.7233 0.644167 28.8675C0.715595 28.8107 0.785701 28.7538 0.857129 28.6969C1.00527 28.8358 1.17194 28.9588 1.2976 29.1162C2.71291 30.8794 4.56606 31.9469 6.7221 32.5249C7.58981 32.7577 7.75912 32.6426 7.84774 31.8C5.90862 31.4865 4.17717 30.7352 2.74863 29.3331C1.40606 28.0157 0.568773 26.4417 0.190473 24.6097C0.141532 24.3716 0.0648136 24.1388 0 23.9033C0 23.3042 0 22.705 0 22.1058L0.00396802 22.1111ZM29.0802 36.8846C29.0709 37.0248 29.0603 37.1584 29.0537 37.2933C28.9386 40.0102 27.2495 42.198 24.6808 42.9559C22.2589 43.6715 19.5393 42.7218 18.1187 40.6649C16.5407 38.3806 16.5896 35.669 18.2497 33.4442C19.6015 31.632 22.2152 30.6969 24.3567 31.2776C24.5167 31.3212 24.6371 31.517 24.7747 31.6413C24.5921 31.6823 24.4123 31.7352 24.2271 31.7577C24.1226 31.7696 24.0128 31.7299 23.9043 31.7154C19.8237 31.1492 16.5592 34.8238 17.7272 38.669C18.5724 41.452 21.0314 42.9943 23.9559 42.5736C26.5749 42.198 28.4638 39.9361 28.4876 37.1266C28.5021 35.5209 28.5114 33.9137 28.4863 32.308C28.4267 28.5858 28.3421 24.8636 28.2773 21.1415C28.2759 21.0648 28.3884 20.9867 28.4479 20.9087C28.5378 20.9008 28.6291 20.8928 28.7191 20.8849C28.8288 21.5449 28.973 22.2023 29.0405 22.8663C29.1225 23.6732 29.0034 24.5211 29.2058 25.2896C30.1516 28.8834 33.6581 31.4667 37.5998 31.3067C41.3405 31.1532 44.9979 27.9191 45.3814 24.201C45.8576 19.5794 43.2585 15.9154 38.7652 14.8294C38.0879 14.6654 37.6752 14.7673 37.5879 15.5265C42.2228 16.6032 44.5838 19.1878 44.5534 23.1348C44.527 26.4721 42.0151 29.5633 38.781 30.2352C35.2666 30.9667 31.9174 29.2644 30.3857 26.0012C29.7111 24.5647 29.3989 21.4788 30.4531 20.8928C30.4333 21.1547 30.4082 21.3386 30.4069 21.5224C30.3989 22.4986 30.2243 23.5131 30.424 24.4457C31.3023 28.5382 35.5298 30.845 39.4808 29.4786C42.4185 28.4628 44.3828 25.3107 44.0018 22.2261C43.605 19.0172 40.9596 16.4008 37.8961 16.1627C37.3525 16.1204 36.9861 16.2315 36.9226 16.836C40.2691 17.7051 40.4305 17.7844 41.3352 18.6534C42.5799 19.8505 43.1897 21.3386 43.2095 23.0277C43.2413 25.7499 41.1765 28.2855 38.535 28.894C35.8128 29.5196 33.0206 28.2062 31.7653 25.7062C30.9333 24.0515 30.8791 21.8915 31.7904 21.1217C31.7666 21.5092 31.7825 21.787 31.7296 22.0515C31.1 25.1573 33.5761 28.2961 36.7295 28.5131C39.8657 28.7287 42.9251 26.1401 42.6434 22.4761C42.4582 20.0754 40.203 17.545 37.8102 17.5397C32.2957 17.5278 26.7826 17.6376 21.2681 17.6918C21.1544 17.6918 21.0406 17.6217 20.9269 17.5834C21.198 17.2791 21.497 17.1032 21.8104 17.0728C22.6186 16.9921 23.4361 16.9895 24.2469 16.9273C24.7033 16.8929 25.1768 16.8678 25.6067 16.7276C28.9876 15.627 31.2825 12.4803 31.3394 8.91156C31.424 3.56906 26.2958 -0.500965 21.0777 0.766208C17.5645 1.61937 14.8529 4.80449 14.8304 8.14835C15.0791 8.25284 15.3423 8.36395 15.6227 8.48299C15.9428 4.46455 18.8542 1.64053 22.7324 1.43418C25.9625 1.26223 29.0894 3.31907 30.0643 6.66822C31.1039 10.2396 29.5722 13.8176 26.3699 15.4524C24.4718 16.422 21.6478 16.541 20.8528 15.5464C21.321 15.5874 21.6755 15.6046 22.0287 15.6509C26.5405 16.2381 30.3579 12.561 29.8751 8.09147C29.5206 4.80846 26.5921 2.12332 23.4559 1.98047C19.7827 1.81248 16.7166 4.33492 16.165 8.03459C16.0553 8.77399 16.1307 8.85997 16.9838 9.08616C16.9838 8.88907 16.9759 8.6986 16.9838 8.50945C17.1412 5.44998 19.8118 2.68548 23.2377 2.82305C26.3699 2.94871 28.977 5.55713 29.0656 8.71183C29.1556 11.9446 26.2376 15.549 21.8951 14.7474C21.6676 14.7051 21.4639 14.5252 21.2496 14.4101C21.4745 14.3638 21.7086 14.2527 21.9242 14.2832C24.3355 14.6231 26.2786 13.8228 27.6516 11.8229C28.9016 10.0002 28.7601 7.25682 27.436 5.53067C25.9744 3.62462 23.4784 2.85744 21.2404 3.62594C18.9811 4.40106 17.5751 6.34547 17.5513 8.76077C17.5341 10.5848 17.5182 12.4102 17.546 14.2342C17.5989 17.7394 17.6849 21.2433 17.747 24.7486C17.7484 24.8504 17.6333 24.9536 17.5724 25.0568C17.4878 25.0621 17.4018 25.0673 17.3171 25.0726C17.2047 24.4642 17.0447 23.861 16.9918 23.2473C16.9269 22.4907 17.0791 21.6984 16.919 20.9695C16.0156 16.8598 11.5408 13.9816 7.40595 14.7898C3.3928 15.5741 0.575387 19 0.591259 23.078C0.605809 27.0567 3.45761 30.431 7.39669 31.1969C8.06335 31.3265 8.35831 31.14 8.4509 30.4971C8.37286 30.4694 8.30011 30.435 8.2234 30.4165C8.01176 30.3675 7.79748 30.3292 7.58584 30.2829C4.44436 29.6043 2.39943 27.7155 1.6759 24.5925C0.985434 21.6137 1.95764 19.0675 4.33194 17.1998C6.82792 15.2342 9.603 15.0371 12.427 16.5186C15.2828 18.0159 16.8053 21.3743 16.1135 24.5197C16.0685 24.7234 15.8926 24.898 15.7775 25.0859C15.7087 25.0554 15.6399 25.0263 15.5725 24.9959C15.5897 24.8253 15.6188 24.6533 15.6201 24.4827C15.6307 23.5065 15.8291 22.4827 15.6055 21.5621C14.6056 17.4392 10.8649 15.381 7.17976 16.3638C3.04624 17.4656 1.03834 21.4656 2.44969 25.4377C3.30021 27.8318 5.88217 29.7749 8.22472 29.8278C8.78556 29.8397 9.08582 29.6784 9.10037 29.0884C5.15996 28.9853 2.97614 26.2023 2.83725 23.2274C2.71556 20.6018 4.33325 17.9722 7.40859 17.135C10.1308 16.3942 13.136 17.8439 14.341 20.4352C15.1148 22.0991 15.1254 24.1917 14.3027 24.7671C14.2762 24.5912 14.2352 24.447 14.2352 24.3015C14.2312 23.4682 14.3582 22.615 14.2193 21.8068C13.714 18.8638 10.554 16.8916 7.62949 17.6177C4.69304 18.3466 2.73673 21.1891 3.55417 24.3742C4.22215 26.9827 6.2975 28.4985 9.00777 28.5197C11.1017 28.5355 13.1968 28.5527 15.2894 28.5144C18.4639 28.4562 21.6385 28.349 24.813 28.2723C24.9189 28.2697 25.0273 28.3676 25.1345 28.4191C25.1424 28.4945 25.1517 28.5699 25.1596 28.6453C24.7443 28.7525 24.3342 28.9138 23.9123 28.9535C22.8871 29.0488 21.8184 28.9324 20.8343 29.1744C16.4256 30.2577 13.7378 35.0632 15.0249 39.4176C16.8542 45.6067 24.4691 47.5365 28.9836 42.9281C30.346 41.5366 31.1727 39.8568 31.2336 37.878C31.0391 37.7867 30.9187 37.7206 30.7918 37.6743C30.6754 37.6319 30.551 37.6108 30.4029 37.5737C30.3817 37.7298 30.3658 37.8356 30.3526 37.9415C29.9756 40.9824 28.3315 43.1146 25.489 44.1133C22.5499 45.145 19.8237 44.5154 17.6518 42.2218C15.3992 39.8422 15.0037 36.4693 16.501 33.6757C17.9984 30.8794 21.0247 29.3689 24.2337 29.8371C24.5472 29.8834 24.8408 30.0673 25.1437 30.1863C25.112 30.2815 25.0816 30.3768 25.0498 30.472C24.7906 30.4561 24.5313 30.427 24.2734 30.4257C23.4136 30.4217 22.5274 30.2948 21.698 30.4535C18.9388 30.9826 17.1333 32.6717 16.4084 35.3754C15.6439 38.2245 16.4547 40.6888 18.7457 42.5168C22.9744 45.891 29.0418 43.4003 29.8698 38.0142C29.9677 37.378 29.7865 36.9745 29.0854 36.8872L29.0802 36.8846Z" fill="black"/>
<path d="M1.84129 54.1872C1.42728 53.797 0.632316 54.4134 0.30957 53.4835C2.11774 53.4835 3.79231 53.4782 5.46688 53.4862C6.17057 53.4901 6.89278 53.4306 7.57663 53.5589C9.35835 53.8936 10.5052 55.4636 10.3477 57.2229C10.1903 58.9702 8.7737 60.3167 6.98008 60.3802C6.03698 60.4133 5.09255 60.3855 4.10448 60.3855V64.5799C4.48145 64.5799 4.8505 64.5587 5.21557 64.5931C5.33065 64.6037 5.43118 64.7637 5.53964 64.855C5.43647 64.9529 5.33329 65.1328 5.22879 65.1341C3.73543 65.1526 2.24208 65.1539 0.748717 65.1341C0.634962 65.1328 0.523855 64.9582 0.411423 64.8643C0.543696 64.7677 0.666709 64.6063 0.808241 64.5865C1.12702 64.5441 1.45373 64.5733 1.84261 64.5733V54.1872H1.84129ZM4.123 54.0589V59.8194C5.13224 59.8194 6.07931 59.8511 7.02374 59.8088C7.77637 59.7757 8.18509 59.3022 8.19435 58.5363C8.20757 57.4755 8.21022 56.4147 8.19435 55.3552C8.18244 54.5906 7.75785 54.1025 7.01845 54.0695C6.07402 54.0271 5.12562 54.0589 4.123 54.0589Z" fill="black"/>
<path d="M21.9229 64.8537C21.7469 64.9529 21.579 65.1235 21.3951 65.142C19.1372 65.3735 16.9362 65.1751 16.6756 64.6473C17.1822 64.6182 17.6518 64.5931 18.1809 64.5627V54.1277H14.7021C14.9468 54.3115 15.1095 54.4121 15.2444 54.5417C15.6399 54.9173 15.8449 55.416 15.4613 55.834C15.1968 56.1224 14.6928 56.3512 14.3106 56.3327C13.7735 56.3062 13.5156 55.8499 13.5341 55.2745C13.5659 54.2811 14.5632 53.4954 15.8754 53.4901C18.7033 53.4795 21.5313 53.4862 24.3593 53.4862C24.4413 53.4862 24.5339 53.4623 24.6014 53.4928C24.7733 53.5695 24.9334 53.6727 25.0987 53.7639C24.9347 53.8592 24.772 54.0324 24.6067 54.0364C23.5194 54.0615 22.4321 54.0496 21.3435 54.051C21.0499 54.051 20.7562 54.051 20.4242 54.051V64.5561C20.8978 64.5865 21.3686 64.6182 21.8382 64.6487C21.866 64.7188 21.8951 64.7875 21.9229 64.8576V64.8537Z" fill="black"/>
<path d="M25.5076 64.5653C26.0407 64.5958 26.456 64.6182 26.9296 64.646C26.6134 65.1672 25.3767 65.3325 23.7061 65.1513C23.5156 65.1301 23.341 64.9555 23.0791 64.8061C23.2854 64.6751 23.3331 64.6182 23.3701 64.6249C24.5235 64.8166 25.0486 64.2796 25.4746 63.2056C26.7047 60.1011 28.0843 57.0562 29.4057 53.9888C29.5128 53.7415 29.6279 53.4968 29.8052 53.1052C30.1663 53.9094 30.4864 54.5973 30.7866 55.2943C31.9996 58.1104 33.231 60.9199 34.399 63.7545C34.6688 64.4093 34.9823 64.7201 35.7032 64.6169C35.9109 64.5878 36.149 64.7677 36.3725 64.8524C36.1582 64.9529 35.9466 65.1368 35.7297 65.142C34.3977 65.1685 33.0644 65.1672 31.7324 65.1407C31.5565 65.1368 31.3832 64.933 31.2099 64.8219C31.3871 64.7479 31.5578 64.642 31.7416 64.6077C31.9718 64.564 32.2139 64.5772 32.5591 64.56C31.3885 61.8273 30.2509 59.1726 29.0248 56.3089C28.2655 58.0721 27.5883 59.6408 26.8899 61.2638C27.8912 61.5019 28.907 61.1276 29.7919 61.4979C29.78 61.6143 29.7681 61.7307 29.7562 61.8484C29.0896 61.8484 28.415 61.9106 27.7576 61.8326C26.8819 61.7294 26.3952 62.0482 26.1611 62.8921C26.0103 63.4344 25.755 63.9476 25.5116 64.5653H25.5076Z" fill="black"/>
<path d="M38.7918 64.5997V54.047C38.4836 54.047 38.1661 54.0774 37.8579 54.0351C37.682 54.0113 37.522 53.8671 37.3553 53.7771C37.5087 53.6792 37.6609 53.502 37.8169 53.498C38.8182 53.4729 39.8209 53.4848 40.9201 53.4848V64.5018H44.4716C44.1488 64.2584 43.9174 64.1751 43.8764 64.0362C43.7547 63.6262 43.5417 63.1222 43.6819 62.7902C43.8063 62.4992 44.4081 62.187 44.7123 62.2571C45.0668 62.3405 45.4861 62.7836 45.5933 63.1526C45.8261 63.9555 45.1131 64.9185 44.2242 65.056C43.5324 65.1632 42.8182 65.1446 42.1132 65.1513C40.7005 65.1645 39.2865 65.1685 37.8738 65.1447C37.6952 65.142 37.522 64.941 37.3447 64.8325C37.518 64.7545 37.6847 64.6341 37.8646 64.6103C38.1516 64.5732 38.4466 64.5997 38.7905 64.5997H38.7918Z" fill="black"/>
<path d="M15.0469 61.8445C13.5284 61.8445 12.2162 61.8484 10.9041 61.8352C10.8102 61.8352 10.7176 61.6963 10.625 61.6222C10.7017 61.5336 10.7784 61.3696 10.8565 61.3683C12.1488 61.3617 13.4411 61.3736 14.7347 61.396C14.7903 61.396 14.8432 61.5442 15.0469 61.8431V61.8445Z" fill="black"/>
<path d="M33.3199 21.2711C33.2869 21.5542 33.2736 21.8412 33.2168 22.119C32.8755 23.7671 33.3517 25.152 34.6572 26.1784C35.9945 27.2287 37.5037 27.3742 39.0143 26.5832C40.4163 25.8491 41.0936 24.6626 41.1901 23.0343C41.3171 20.9074 39.1928 18.8995 37.1254 18.9458C32.5329 19.0489 27.9364 18.9669 23.3413 18.9907C22.705 18.9934 22.0688 19.172 21.4312 19.2553C21.2897 19.2738 21.1416 19.2368 20.9961 19.2249C20.9683 19.1481 20.9418 19.0701 20.9141 18.9934C21.2712 18.8426 21.6164 18.6058 21.9868 18.5595C22.8188 18.455 23.6614 18.4061 24.5 18.4034C28.6322 18.3902 32.7657 18.3929 36.8979 18.4021C39.3277 18.4074 41.1439 19.8333 41.6214 22.0806C42.0658 24.1666 40.9838 26.2988 39.0328 27.185C37.0553 28.0832 34.7313 27.4522 33.4403 25.6718C32.6228 24.5449 32.4403 23.2856 32.6943 21.951C32.7445 21.6878 32.9138 21.447 33.0276 21.1957L33.316 21.2711H33.3199Z" fill="black"/>
<path d="M25.1347 27.1599C24.3939 27.3054 23.6545 27.57 22.9125 27.5766C18.2115 27.6149 13.5079 27.6348 8.80693 27.5805C6.28316 27.5514 4.30569 25.492 4.26997 23.0409C4.23558 20.6375 6.21174 18.4775 8.72889 18.418C11.873 18.3453 14.0463 21.1653 13.2923 24.1944C13.2407 24.402 13.0912 24.5846 12.9867 24.779L12.7513 24.7182C12.7711 24.4523 12.7579 24.1785 12.8161 23.9206C13.2963 21.7738 12.0569 19.545 9.91405 19.0595C7.72097 18.5635 5.68397 19.4921 5.00145 21.8664C4.15225 24.8213 6.44983 27.0237 8.68524 27.0276C13.496 27.0356 18.3068 27.0356 23.1175 27.0197C23.5699 27.0184 24.0223 26.8742 24.476 26.8001C24.6625 26.7697 24.8503 26.7525 25.0381 26.73C25.0712 26.8729 25.1042 27.0157 25.1373 27.1586L25.1347 27.1599Z" fill="black"/>
<path d="M21.28 12.6919C21.5141 12.7237 21.7508 12.7422 21.981 12.7911C23.8275 13.1774 25.5457 12.4697 26.4889 10.9287C27.3685 9.49093 27.2058 7.54784 26.0947 6.20792C25.0709 4.97381 23.2812 4.47515 21.7403 4.99498C20.1305 5.53862 19.0181 6.91426 19.0075 8.58221C18.9771 13.4287 18.993 18.2752 19.0115 23.1216C19.0128 23.5475 19.1795 23.9708 19.2324 24.3994C19.2575 24.6004 19.1927 24.8134 19.1689 25.0211C19.0274 24.8571 18.8117 24.7142 18.7602 24.5264C18.6199 24.0079 18.4665 23.4695 18.4639 22.9391C18.4401 18.1746 18.4295 13.4089 18.4559 8.64439C18.4692 6.32829 20.4242 4.4024 22.7839 4.28468C25.1225 4.16695 27.2838 5.93279 27.5576 8.18407C27.8579 10.6496 26.301 12.8771 23.9267 13.2739C23.2521 13.3864 22.5379 13.3017 21.8448 13.2541C21.6239 13.2395 21.4149 13.053 21.2006 12.9459C21.227 12.8612 21.2535 12.7779 21.28 12.6933V12.6919Z" fill="black"/>
<path d="M24.7638 33.308C24.4265 33.263 24.0879 33.222 23.7506 33.1731C21.9953 32.9217 20.5866 33.4892 19.6025 34.9826C18.7163 36.3278 18.7837 38.1544 19.7281 39.5169C20.6845 40.8978 22.4569 41.5182 24.1156 41.0526C25.7876 40.5843 27.0084 39.161 27.0217 37.4375C27.06 32.6188 27.0468 27.8001 27.019 22.9814C27.015 22.3439 26.8074 21.7063 26.8127 20.9034C26.9621 21.0529 27.2055 21.1799 27.2465 21.3545C27.396 21.9841 27.5666 22.6296 27.5706 23.2698C27.5971 27.9245 27.5997 32.5805 27.5799 37.2352C27.5693 39.9203 25.3233 41.8925 22.5495 41.7047C20.0416 41.5353 18.1422 39.0936 18.4755 36.4653C18.7864 34.0117 21.3723 32.1572 23.8431 32.6387C24.1831 32.7048 24.5019 32.8834 24.8312 33.0104C24.8087 33.1082 24.7863 33.2075 24.7624 33.3053L24.7638 33.308Z" fill="black"/>
<path d="M21.354 10.8083C21.567 10.885 21.7826 10.9538 21.9915 11.0372C23.1172 11.4895 24.1754 11.2514 24.9346 10.3692C25.637 9.55173 25.7256 8.34673 25.1515 7.41156C24.5801 6.48168 23.4849 6.02931 22.4056 6.27798C21.3447 6.52269 20.5392 7.45125 20.5194 8.64567C20.4744 11.229 20.4969 13.8136 20.4929 16.3968C20.4903 18.328 20.4387 20.2605 20.5114 22.1891C20.5458 23.1017 20.8223 24.0065 21.0048 24.9999C20.8871 24.9311 20.6014 24.8636 20.5445 24.7115C20.309 24.0859 19.985 23.4364 19.9784 22.7936C19.9307 18.0886 19.9387 13.3824 19.9612 8.67741C19.9691 7.00813 21.4664 5.61794 23.0947 5.68011C24.7904 5.74492 26.1846 7.25548 26.0801 8.9155C25.9756 10.5755 24.4928 11.9128 22.8381 11.7792C22.231 11.7303 21.5815 11.6364 21.2125 11.0676C21.2601 10.9816 21.3064 10.8943 21.354 10.8083Z" fill="black"/>
<path d="M24.8837 20.791C25.1707 21.0224 25.4644 21.1415 25.5358 21.3412C25.762 21.9708 26.0504 22.6295 26.0557 23.279C26.0993 27.931 26.0874 32.5831 26.0742 37.2351C26.0702 38.7271 24.9657 40.0261 23.5888 40.2417C22.02 40.4877 20.61 39.6583 20.1206 38.202C19.655 36.8171 20.2462 35.2907 21.5544 34.5777C22.4446 34.0923 23.3771 34.0923 24.2977 34.4904C24.5067 34.5804 24.6668 34.7854 24.8493 34.9375L24.7223 35.1716C24.52 35.1095 24.3097 35.0645 24.1139 34.9825C22.9565 34.4997 21.8692 34.7312 21.0901 35.6346C20.3732 36.4679 20.3071 37.6954 20.9274 38.6676C21.4737 39.5234 22.6615 39.9824 23.6403 39.7152C24.7713 39.4057 25.516 38.501 25.5226 37.247C25.5477 32.595 25.5636 27.9429 25.5107 23.2909C25.5014 22.5198 25.1337 21.7539 24.8811 20.791H24.8837Z" fill="black"/>
<path d="M35.1701 21.2817C35.0802 21.5515 34.9995 21.824 34.9003 22.0899C34.4162 23.3795 35.0193 24.8028 36.2839 25.3372C37.51 25.857 38.9505 25.3134 39.5298 24.1123C40.3301 22.4549 39.1714 20.4854 37.3301 20.4748C32.5736 20.447 27.8171 20.451 23.0606 20.4854C22.5473 20.4894 22.0368 20.7724 21.5262 20.9298C21.3503 20.9841 21.177 21.0515 21.0037 21.1137C20.9587 21.0423 20.9151 20.9722 20.8701 20.9007C21.0236 20.7499 21.1519 20.5317 21.3357 20.4629C21.8873 20.2566 22.4587 19.9642 23.0248 19.959C27.8078 19.9206 32.5921 19.9219 37.3751 19.951C38.8354 19.9603 40.0774 21.1375 40.2851 22.5634C40.4901 23.9642 39.6608 25.3438 38.3037 25.8596C37.1344 26.3054 35.8355 25.9668 34.9717 24.9919C34.1516 24.0673 33.9625 22.7116 34.522 21.6481C34.6159 21.4695 34.7746 21.3253 34.9029 21.1653C34.9929 21.2036 35.0815 21.242 35.1714 21.2804L35.1701 21.2817Z" fill="black"/>
<path d="M25.2379 24.9298C24.722 25.7882 24.0553 26.0065 23.3543 26.0091C18.4047 26.0303 13.455 26.0342 8.50404 26.0118C7.24084 26.0065 6.10858 24.9721 5.80171 23.6771C5.49351 22.3769 6.10594 21.0132 7.29904 20.3518C8.5305 19.668 9.89026 19.8452 10.9008 20.8201C11.8519 21.7393 12.1177 23.2287 11.5027 24.3451C11.4008 24.529 11.1826 24.648 11.0172 24.7975C10.9551 24.7486 10.8929 24.6983 10.832 24.6494C10.9193 24.4417 11.0053 24.2353 11.0926 24.0277C11.7024 22.5991 10.9881 21.0595 9.4855 20.5674C8.20378 20.1481 6.64958 21.0092 6.35593 22.3002C5.99615 23.8822 6.8837 25.275 8.42071 25.5012C8.82149 25.5607 9.23418 25.5462 9.64158 25.5475C13.9656 25.5514 18.2909 25.5766 22.6136 25.5263C23.3054 25.5184 23.9932 25.1665 24.685 24.98C24.7974 24.9496 24.9204 24.9562 25.2379 24.9284V24.9298Z" fill="black"/>
<path d="M24.592 37.12C24.6119 37.9269 23.891 38.6914 23.0709 38.7337C22.2455 38.7774 21.4347 38.0076 21.4201 37.1663C21.4056 36.3674 22.1331 35.5962 22.9426 35.5513C23.768 35.505 24.5709 36.2695 24.592 37.12Z" fill="black"/>
<path d="M22.9833 7.28325C23.8391 7.27002 24.5918 8.02662 24.5812 8.89036C24.5719 9.69855 23.8219 10.4512 23.0164 10.4631C22.2188 10.475 21.4516 9.73558 21.4172 8.92343C21.3815 8.0835 22.1355 7.29515 22.9833 7.28192V7.28325Z" fill="black"/>
<path d="M24.6021 22.9708C24.6087 23.8028 23.9037 24.5237 23.0611 24.5488C22.1855 24.5739 21.4289 23.8544 21.421 22.9867C21.413 22.1758 22.1405 21.4285 22.9633 21.4007C23.8164 21.3716 24.5942 22.1176 24.6008 22.9708H24.6021Z" fill="black"/>
<path d="M8.85188 24.5991C7.99475 24.5965 7.29768 23.9007 7.29106 23.0423C7.28445 22.1891 7.97888 21.4814 8.83336 21.4695C9.73017 21.4563 10.4537 22.1772 10.4352 23.0634C10.4167 23.9139 9.70768 24.6031 8.85188 24.6004V24.5991Z" fill="black"/>
<path d="M37.1245 21.4695C37.983 21.4484 38.7039 22.1256 38.7343 22.9774C38.7647 23.8372 38.0994 24.5647 37.2449 24.6031C36.352 24.6441 35.606 23.9443 35.5968 23.0555C35.5875 22.1957 36.2687 21.4894 37.1245 21.4682V21.4695Z" fill="black"/>
</svg>
