<svg width="17" height="17" viewBox="0 0 17 17" fill="none" xmlns="http://www.w3.org/2000/svg">
<g clip-path="url(#clip0_1888_3922)">
<circle cx="8.5" cy="8.5" r="6.5" fill="white"/>
<path d="M8.37 16.73C3.75 16.73 0 12.98 0 8.37C0 3.75 3.74 0 8.36 0C12.98 0 16.73 3.74 16.73 8.36C16.73 12.98 12.99 16.73 8.37 16.73ZM10.39 10.38H10.61C11.27 10.38 11.93 10.38 12.59 10.38C13.35 10.38 13.87 9.86 13.87 9.1C13.87 8.64 13.87 8.19 13.87 7.73C13.87 6.97 13.35 6.45 12.59 6.45C11.92 6.45 11.26 6.45 10.59 6.45C10.53 6.45 10.46 6.45 10.39 6.45C10.39 6.37 10.39 6.3 10.39 6.24C10.39 5.59 10.39 4.93 10.39 4.28C10.39 3.5 9.88 2.99 9.11 2.98C8.66 2.98 8.21 2.98 7.76 2.98C6.98 2.98 6.47 3.51 6.46 4.29C6.46 4.94 6.46 5.6 6.46 6.25V6.46C6.38 6.46 6.31 6.46 6.25 6.46C5.58 6.46 4.92 6.46 4.25 6.46C3.51 6.46 3 6.98 2.99 7.72C2.99 8.19 2.99 8.66 2.99 9.13C2.99 9.88 3.52 10.39 4.26 10.39C4.93 10.39 5.59 10.39 6.26 10.39C6.32 10.39 6.39 10.39 6.46 10.39C6.46 11.13 6.46 11.83 6.46 12.54C6.46 13.35 6.97 13.86 7.77 13.87C8.21 13.87 8.65 13.87 9.09 13.87C9.89 13.87 10.39 13.36 10.4 12.56C10.4 11.91 10.4 11.25 10.4 10.6C10.4 10.54 10.4 10.47 10.4 10.39L10.39 10.38Z" fill="url(#paint0_linear_1888_3922)"/>
</g>
<defs>
<linearGradient id="paint0_linear_1888_3922" x1="0" y1="8.36" x2="16.73" y2="8.36" gradientUnits="userSpaceOnUse">
<stop stop-color="#E4889E"/>
<stop offset="0.58" stop-color="#AC63C4"/>
<stop offset="1" stop-color="#8347E2"/>
</linearGradient>
<clipPath id="clip0_1888_3922">
<rect width="16.73" height="16.73" fill="white"/>
</clipPath>
</defs>
</svg>
